G04 Layer_Color=32768*
%FSLAX25Y25*%
%MOIN*%
G70*
G01*
G75*
%ADD33C,0.00394*%
%ADD34C,0.00197*%
D33*
X498000Y114032D02*
Y117969D01*
X496032Y116000D02*
X499969D01*
X492488Y112850D02*
X503512D01*
X492488Y119150D02*
X503512D01*
Y112850D02*
Y119150D01*
X492488Y112850D02*
Y119150D01*
X488000Y140532D02*
Y144469D01*
X486032Y142500D02*
X489969D01*
X513000Y140532D02*
Y144469D01*
X511032Y142500D02*
X514969D01*
X484500Y164532D02*
Y168469D01*
X482532Y166500D02*
X486469D01*
X478988Y163350D02*
X490012D01*
X478988Y169650D02*
X490012D01*
Y163350D02*
Y169650D01*
X478988Y163350D02*
Y169650D01*
X504000Y164532D02*
Y168469D01*
X502032Y166500D02*
X505969D01*
X498488Y163350D02*
X509512D01*
X498488Y169650D02*
X509512D01*
Y163350D02*
Y169650D01*
X498488Y163350D02*
Y169650D01*
X483000Y114032D02*
Y117969D01*
X481032Y116000D02*
X484969D01*
X477488Y112850D02*
X488512D01*
X477488Y119150D02*
X488512D01*
Y112850D02*
Y119150D01*
X477488Y112850D02*
Y119150D01*
X512500Y114032D02*
Y117969D01*
X510532Y116000D02*
X514469D01*
X506988Y112850D02*
X518012D01*
X506988Y119150D02*
X518012D01*
Y112850D02*
Y119150D01*
X506988Y112850D02*
Y119150D01*
X518500Y164532D02*
Y168469D01*
X516532Y166500D02*
X520469D01*
X512988Y163350D02*
X524012D01*
X512988Y169650D02*
X524012D01*
Y163350D02*
Y169650D01*
X512988Y163350D02*
Y169650D01*
X598032Y179500D02*
X601969D01*
X600000Y177531D02*
Y181468D01*
X599335Y150776D02*
X603665D01*
X599335Y160224D02*
X603665D01*
X599335Y150776D02*
Y160224D01*
X603665Y150776D02*
Y160224D01*
X601500Y153630D02*
Y157370D01*
X599630Y155500D02*
X603370D01*
X581532Y156000D02*
X585469D01*
X583500Y154031D02*
Y157968D01*
X580350Y150488D02*
Y161512D01*
X586650Y150488D02*
Y161512D01*
X580350Y150488D02*
X586650D01*
X580350Y161512D02*
X586650D01*
X610500Y162532D02*
Y166469D01*
X608532Y164500D02*
X612469D01*
X604988Y161350D02*
X616012D01*
X604988Y167650D02*
X616012D01*
Y161350D02*
Y167650D01*
X604988Y161350D02*
Y167650D01*
X561532Y155000D02*
X565469D01*
X563500Y153031D02*
Y156968D01*
X560350Y149488D02*
Y160512D01*
X566650Y149488D02*
Y160512D01*
X560350Y149488D02*
X566650D01*
X560350Y160512D02*
X566650D01*
X610276Y138835D02*
Y143165D01*
X619724Y138835D02*
Y143165D01*
X610276D02*
X619724D01*
X610276Y138835D02*
X619724D01*
X613130Y141000D02*
X616870D01*
X615000Y139130D02*
Y142870D01*
X630724Y171835D02*
Y176165D01*
X621276Y171835D02*
Y176165D01*
Y171835D02*
X630724D01*
X621276Y176165D02*
X630724D01*
X624130Y174000D02*
X627870D01*
X626000Y172130D02*
Y175870D01*
X603335Y147724D02*
X607665D01*
X603335Y138276D02*
X607665D01*
Y147724D01*
X603335Y138276D02*
Y147724D01*
X605500Y141130D02*
Y144870D01*
X603630Y143000D02*
X607370D01*
X573000Y124531D02*
Y128468D01*
X571032Y126500D02*
X574969D01*
X585335Y118224D02*
X589665D01*
X585335Y108776D02*
X589665D01*
Y118224D01*
X585335Y108776D02*
Y118224D01*
X587500Y111630D02*
Y115370D01*
X585630Y113500D02*
X589370D01*
X621776Y134335D02*
Y138665D01*
X631224Y134335D02*
Y138665D01*
X621776D02*
X631224D01*
X621776Y134335D02*
X631224D01*
X624630Y136500D02*
X628370D01*
X626500Y134630D02*
Y138370D01*
X570335Y150776D02*
X574665D01*
X570335Y160224D02*
X574665D01*
X570335Y150776D02*
Y160224D01*
X574665Y150776D02*
Y160224D01*
X572500Y153630D02*
Y157370D01*
X570630Y155500D02*
X574370D01*
X576224Y165335D02*
Y169665D01*
X566776Y165335D02*
Y169665D01*
Y165335D02*
X576224D01*
X566776Y169665D02*
X576224D01*
X569630Y167500D02*
X573370D01*
X571500Y165630D02*
Y169370D01*
X616224Y151835D02*
Y156165D01*
X606776Y151835D02*
Y156165D01*
Y151835D02*
X616224D01*
X606776Y156165D02*
X616224D01*
X609630Y154000D02*
X613370D01*
X611500Y152130D02*
Y155870D01*
X591031Y156000D02*
X594968D01*
X593000Y154032D02*
Y157969D01*
X596150Y150488D02*
Y161512D01*
X589850Y150488D02*
Y161512D01*
X596150D01*
X589850Y150488D02*
X596150D01*
X650031Y119000D02*
X653968D01*
X652000Y117032D02*
Y120969D01*
X554350Y120488D02*
X560650D01*
X554350Y131512D02*
X560650D01*
X554350Y120488D02*
Y131512D01*
X560650Y120488D02*
Y131512D01*
X557500Y124032D02*
Y127969D01*
X555531Y126000D02*
X559468D01*
X623350Y112488D02*
X629650D01*
X623350Y123512D02*
X629650D01*
X623350Y112488D02*
Y123512D01*
X629650Y112488D02*
Y123512D01*
X626500Y116032D02*
Y119969D01*
X624531Y118000D02*
X628468D01*
X592888Y192850D02*
Y199150D01*
X603912Y192850D02*
Y199150D01*
X592888D02*
X603912D01*
X592888Y192850D02*
X603912D01*
X596432Y196000D02*
X600369D01*
X598400Y194032D02*
Y197969D01*
D34*
X477173Y123602D02*
X498827D01*
X477173Y161398D02*
X498827D01*
X477173Y123602D02*
Y161398D01*
X498827Y123602D02*
Y161398D01*
X502173Y123602D02*
X523827D01*
X502173Y161398D02*
X523827D01*
X502173Y123602D02*
Y161398D01*
X523827Y123602D02*
Y161398D01*
X581102Y168673D02*
Y190327D01*
X618898Y168673D02*
Y190327D01*
X581102D02*
X618898D01*
X581102Y168673D02*
X618898D01*
X562173Y145398D02*
X583827D01*
X562173Y107602D02*
X583827D01*
Y145398D01*
X562173Y107602D02*
Y145398D01*
X633102Y108173D02*
Y129827D01*
X670898Y108173D02*
Y129827D01*
X633102D02*
X670898D01*
X633102Y108173D02*
X670898D01*
M02*
