G04 Layer_Color=16711935*
%FSLAX25Y25*%
%MOIN*%
G70*
G01*
G75*
%ADD16C,0.01000*%
%ADD32C,0.00600*%
D16*
X444500Y104500D02*
Y185500D01*
X528500Y104500D02*
Y185500D01*
X444500Y104500D02*
X528500D01*
X444500Y185500D02*
X528500D01*
X549500Y203000D02*
X687500D01*
Y102000D02*
Y203000D01*
X549500Y102000D02*
X687500D01*
X549500D02*
Y183500D01*
Y200000D01*
Y203000D01*
X443500Y192000D02*
X457909D01*
X514091D02*
X528500D01*
X443500D02*
X449500Y194000D01*
X443500Y192000D02*
X449500Y190000D01*
X522500Y194000D02*
X528500Y192000D01*
X522500Y190000D02*
X528500Y192000D01*
X443500Y191000D02*
Y193000D01*
X528500Y191000D02*
Y193000D01*
X438000Y103500D02*
Y112910D01*
Y176090D02*
Y185500D01*
X436000Y109500D02*
X438000Y103500D01*
X440000Y109500D01*
X436000Y179500D02*
X438000Y185500D01*
X440000Y179500D01*
X437000Y103500D02*
X439000D01*
X437000Y185500D02*
X439000D01*
X549500Y209000D02*
X586910D01*
X650090D02*
X687500D01*
X549500D02*
X555500Y211000D01*
X549500Y209000D02*
X555500Y207000D01*
X681500Y211000D02*
X687500Y209000D01*
X681500Y207000D02*
X687500Y209000D01*
X549500Y208000D02*
Y210000D01*
X687500Y208000D02*
Y210000D01*
X543500Y101910D02*
Y120819D01*
Y184000D02*
Y202910D01*
X541500Y107910D02*
X543500Y101910D01*
X545500Y107910D01*
X541500Y196910D02*
X543500Y202910D01*
X545500Y196910D01*
X542500Y101910D02*
X544500D01*
X542500Y202910D02*
X544500D01*
D32*
X462907Y188401D02*
X458909D01*
X462907Y192400D01*
Y193399D01*
X461908Y194399D01*
X459908D01*
X458909Y193399D01*
X464907Y188401D02*
X466906D01*
X465906D01*
Y194399D01*
X464907Y193399D01*
X469905Y188401D02*
Y189401D01*
X470905D01*
Y188401D01*
X469905D01*
X478902Y194399D02*
X474903D01*
Y191400D01*
X476903Y192400D01*
X477902D01*
X478902Y191400D01*
Y189401D01*
X477902Y188401D01*
X475903D01*
X474903Y189401D01*
X480901D02*
X481901Y188401D01*
X483900D01*
X484900Y189401D01*
Y193399D01*
X483900Y194399D01*
X481901D01*
X480901Y193399D01*
Y192400D01*
X481901Y191400D01*
X484900D01*
X494897Y188401D02*
X492898Y190400D01*
Y192400D01*
X494897Y194399D01*
X497896Y188401D02*
Y192400D01*
X498896D01*
X499895Y191400D01*
Y188401D01*
Y191400D01*
X500895Y192400D01*
X501895Y191400D01*
Y188401D01*
X503894D02*
Y192400D01*
X504894D01*
X505893Y191400D01*
Y188401D01*
Y191400D01*
X506893Y192400D01*
X507893Y191400D01*
Y188401D01*
X509892D02*
X511891Y190400D01*
Y192400D01*
X509892Y194399D01*
X441599Y117908D02*
Y113910D01*
X437600Y117908D01*
X436601D01*
X435601Y116909D01*
Y114909D01*
X436601Y113910D01*
Y119908D02*
X435601Y120907D01*
Y122907D01*
X436601Y123907D01*
X440599D01*
X441599Y122907D01*
Y120907D01*
X440599Y119908D01*
X436601D01*
X441599Y125906D02*
X440599D01*
Y126906D01*
X441599D01*
Y125906D01*
X436601Y130904D02*
X435601Y131904D01*
Y133903D01*
X436601Y134903D01*
X437600D01*
X438600Y133903D01*
X439600Y134903D01*
X440599D01*
X441599Y133903D01*
Y131904D01*
X440599Y130904D01*
X439600D01*
X438600Y131904D01*
X437600Y130904D01*
X436601D01*
X438600Y131904D02*
Y133903D01*
X441599Y140901D02*
Y136902D01*
X437600Y140901D01*
X436601D01*
X435601Y139901D01*
Y137902D01*
X436601Y136902D01*
Y142900D02*
X435601Y143900D01*
Y145899D01*
X436601Y146899D01*
X437600D01*
X438600Y145899D01*
X439600Y146899D01*
X440599D01*
X441599Y145899D01*
Y143900D01*
X440599Y142900D01*
X439600D01*
X438600Y143900D01*
X437600Y142900D01*
X436601D01*
X438600Y143900D02*
Y145899D01*
X441599Y156896D02*
X439600Y154896D01*
X437600D01*
X435601Y156896D01*
X441599Y159895D02*
X437600D01*
Y160895D01*
X438600Y161894D01*
X441599D01*
X438600D01*
X437600Y162894D01*
X438600Y163893D01*
X441599D01*
Y165893D02*
X437600D01*
Y166893D01*
X438600Y167892D01*
X441599D01*
X438600D01*
X437600Y168892D01*
X438600Y169892D01*
X441599D01*
Y171891D02*
X439600Y173890D01*
X437600D01*
X435601Y171891D01*
X587910Y210399D02*
X588909Y211399D01*
X590909D01*
X591908Y210399D01*
Y209400D01*
X590909Y208400D01*
X589909D01*
X590909D01*
X591908Y207400D01*
Y206401D01*
X590909Y205401D01*
X588909D01*
X587910Y206401D01*
X597906Y211399D02*
X593908D01*
Y208400D01*
X595907Y209400D01*
X596907D01*
X597906Y208400D01*
Y206401D01*
X596907Y205401D01*
X594907D01*
X593908Y206401D01*
X599906Y205401D02*
Y206401D01*
X600906D01*
Y205401D01*
X599906D01*
X604904Y210399D02*
X605904Y211399D01*
X607903D01*
X608903Y210399D01*
Y206401D01*
X607903Y205401D01*
X605904D01*
X604904Y206401D01*
Y210399D01*
X614901Y211399D02*
X610902D01*
Y208400D01*
X612902Y209400D01*
X613901D01*
X614901Y208400D01*
Y206401D01*
X613901Y205401D01*
X611902D01*
X610902Y206401D01*
X620899Y205401D02*
X616900D01*
X620899Y209400D01*
Y210399D01*
X619899Y211399D01*
X617900D01*
X616900Y210399D01*
X630896Y205401D02*
X628896Y207400D01*
Y209400D01*
X630896Y211399D01*
X633895Y205401D02*
Y209400D01*
X634895D01*
X635894Y208400D01*
Y205401D01*
Y208400D01*
X636894Y209400D01*
X637893Y208400D01*
Y205401D01*
X639893D02*
Y209400D01*
X640893D01*
X641892Y208400D01*
Y205401D01*
Y208400D01*
X642892Y209400D01*
X643892Y208400D01*
Y205401D01*
X645891D02*
X647890Y207400D01*
Y209400D01*
X645891Y211399D01*
X547099Y125818D02*
Y121819D01*
X543100Y125818D01*
X542101D01*
X541101Y124818D01*
Y122819D01*
X542101Y121819D01*
X541101Y131816D02*
Y127817D01*
X544100D01*
X543100Y129817D01*
Y130816D01*
X544100Y131816D01*
X546099D01*
X547099Y130816D01*
Y128817D01*
X546099Y127817D01*
X547099Y133816D02*
X546099D01*
Y134815D01*
X547099D01*
Y133816D01*
X541101Y142813D02*
X542101Y140813D01*
X544100Y138814D01*
X546099D01*
X547099Y139814D01*
Y141813D01*
X546099Y142813D01*
X545100D01*
X544100Y141813D01*
Y138814D01*
X541101Y148811D02*
Y144812D01*
X544100D01*
X543100Y146811D01*
Y147811D01*
X544100Y148811D01*
X546099D01*
X547099Y147811D01*
Y145812D01*
X546099Y144812D01*
X547099Y153809D02*
X541101D01*
X544100Y150810D01*
Y154809D01*
X547099Y164805D02*
X545100Y162806D01*
X543100D01*
X541101Y164805D01*
X547099Y167805D02*
X543100D01*
Y168804D01*
X544100Y169804D01*
X547099D01*
X544100D01*
X543100Y170803D01*
X544100Y171803D01*
X547099D01*
Y173803D02*
X543100D01*
Y174802D01*
X544100Y175802D01*
X547099D01*
X544100D01*
X543100Y176802D01*
X544100Y177801D01*
X547099D01*
Y179801D02*
X545100Y181800D01*
X543100D01*
X541101Y179801D01*
M02*
