G04 Layer_Color=65535*
%FSLAX25Y25*%
%MOIN*%
G70*
G01*
G75*
%ADD16C,0.01000*%
%ADD20C,0.00984*%
%ADD21C,0.02362*%
%ADD22C,0.00787*%
D16*
X676002Y185999D02*
Y182000D01*
X679001D01*
X678001Y183999D01*
Y184999D01*
X679001Y185999D01*
X681000D01*
X682000Y184999D01*
Y183000D01*
X681000Y182000D01*
X676002Y187998D02*
X680001D01*
X682000Y189997D01*
X680001Y191997D01*
X676002D01*
X451499Y156498D02*
X447500D01*
Y153499D01*
X449499Y154499D01*
X450499D01*
X451499Y153499D01*
Y151500D01*
X450499Y150500D01*
X448500D01*
X447500Y151500D01*
X453498Y156498D02*
Y152499D01*
X455497Y150500D01*
X457497Y152499D01*
Y156498D01*
X452999Y179498D02*
X451999Y180498D01*
X450000D01*
X449000Y179498D01*
Y175500D01*
X450000Y174500D01*
X451999D01*
X452999Y175500D01*
Y177499D01*
X450999D01*
X644499Y152000D02*
X640500D01*
X644499Y155999D01*
Y156998D01*
X643499Y157998D01*
X641500D01*
X640500Y156998D01*
X607999Y125498D02*
X604000D01*
Y122499D01*
X605999Y123499D01*
X606999D01*
X607999Y122499D01*
Y120500D01*
X606999Y119500D01*
X605000D01*
X604000Y120500D01*
X652999Y118998D02*
X651000D01*
X650000Y117998D01*
Y114000D01*
X651000Y113000D01*
X652999D01*
X653999Y114000D01*
Y117998D01*
X652999Y118998D01*
D20*
X477646Y129606D02*
G03*
X477646Y129606I-492J0D01*
G01*
X502646D02*
G03*
X502646Y129606I-492J0D01*
G01*
X587598Y190347D02*
G03*
X587598Y190347I-492J0D01*
G01*
X584339Y139394D02*
G03*
X584339Y139394I-492J0D01*
G01*
X639598Y129847D02*
G03*
X639598Y129847I-492J0D01*
G01*
D21*
X483276Y140138D02*
G03*
X483276Y140138I-1181J0D01*
G01*
X508276D02*
G03*
X508276Y140138I-1181J0D01*
G01*
X598819Y185406D02*
G03*
X598819Y185406I-1181J0D01*
G01*
X580087Y128862D02*
G03*
X580087Y128862I-1181J0D01*
G01*
X650819Y124906D02*
G03*
X650819Y124906I-1181J0D01*
G01*
D22*
X455833Y172000D02*
Y185333D01*
X457500Y187000D01*
X459167Y185333D01*
Y172000D02*
Y185333D01*
X465833Y172000D02*
Y185333D01*
X467500Y187000D01*
X469167Y185333D01*
Y172000D02*
Y185333D01*
X452500Y167000D02*
X472500D01*
Y172000D01*
X452500Y167000D02*
Y172000D01*
X472500D01*
X465000Y112000D02*
Y152000D01*
X446667Y115333D02*
X460000D01*
X445000Y117000D02*
X446667Y115333D01*
X445000Y117000D02*
X446667Y118667D01*
X460000D01*
X446667Y125333D02*
X460000D01*
X445000Y127000D02*
X446667Y125333D01*
X445000Y127000D02*
X446667Y128667D01*
X460000D01*
X446667Y135333D02*
X460000D01*
X445000Y137000D02*
X446667Y135333D01*
X445000Y137000D02*
X446667Y138667D01*
X460000D01*
X446667Y145333D02*
X460000D01*
X445000Y147000D02*
X446667Y145333D01*
X445000Y147000D02*
X446667Y148667D01*
X460000D01*
Y152000D02*
X465000D01*
X460000Y112000D02*
X465000D01*
X460000D02*
Y152000D01*
X478157Y136201D02*
X497843D01*
X478157Y148799D02*
X497843D01*
X478157Y136201D02*
Y148799D01*
X497843Y136201D02*
Y148799D01*
X503157Y136201D02*
X522843D01*
X503157Y148799D02*
X522843D01*
X503157Y136201D02*
Y148799D01*
X522843Y136201D02*
Y148799D01*
X632500Y179500D02*
X672500D01*
X635833Y184500D02*
Y197833D01*
X637500Y199500D01*
X639167Y197833D01*
Y184500D02*
Y197833D01*
X645833Y184500D02*
Y197833D01*
X647500Y199500D01*
X649167Y197833D01*
Y184500D02*
Y197833D01*
X655833Y184500D02*
Y197833D01*
X657500Y199500D01*
X659167Y197833D01*
Y184500D02*
Y197833D01*
X665833Y184500D02*
Y197833D01*
X667500Y199500D01*
X669167Y197833D01*
Y184500D02*
Y197833D01*
X672500Y179500D02*
Y184500D01*
X632500Y179500D02*
Y184500D01*
X672500D01*
X593701Y169657D02*
Y189343D01*
X606299Y169657D02*
Y189343D01*
X593701D02*
X606299D01*
X593701Y169657D02*
X606299D01*
X600122Y154713D02*
Y156287D01*
X602878Y154713D02*
Y156287D01*
X614213Y142378D02*
X615787D01*
X614213Y139622D02*
X615787D01*
X625213Y172622D02*
X626787D01*
X625213Y175378D02*
X626787D01*
X606878Y142213D02*
Y143787D01*
X604122Y142213D02*
Y143787D01*
X563157Y132799D02*
X582843D01*
X563157Y120201D02*
X582843D01*
Y132799D01*
X563157Y120201D02*
Y132799D01*
X588878Y112713D02*
Y114287D01*
X586122Y112713D02*
Y114287D01*
X625713Y137878D02*
X627287D01*
X625713Y135122D02*
X627287D01*
X571122Y154713D02*
Y156287D01*
X573878Y154713D02*
Y156287D01*
X570713Y166122D02*
X572287D01*
X570713Y168878D02*
X572287D01*
X610713Y152622D02*
X612287D01*
X610713Y155378D02*
X612287D01*
X550667Y176333D02*
X564000D01*
X549000Y178000D02*
X550667Y176333D01*
X549000Y178000D02*
X550667Y179667D01*
X564000D01*
X550667Y186333D02*
X564000D01*
X549000Y188000D02*
X550667Y186333D01*
X549000Y188000D02*
X550667Y189667D01*
X564000D01*
X569000Y173000D02*
Y193000D01*
X564000D02*
X569000D01*
X564000Y173000D02*
X569000D01*
X564000D02*
Y193000D01*
X673000Y157167D02*
X686333D01*
X688000Y155500D01*
X686333Y153833D02*
X688000Y155500D01*
X673000Y153833D02*
X686333D01*
X673000Y147167D02*
X686333D01*
X688000Y145500D01*
X686333Y143833D02*
X688000Y145500D01*
X673000Y143833D02*
X686333D01*
X668000Y140500D02*
Y160500D01*
Y140500D02*
X673000D01*
X668000Y160500D02*
X673000D01*
Y140500D02*
Y160500D01*
X645701Y109157D02*
Y128843D01*
X658299Y109157D02*
Y128843D01*
X645701D02*
X658299D01*
X645701Y109157D02*
X658299D01*
M02*
