G04 Layer_Physical_Order=2*
G04 Layer_Color=16711680*
%FSLAX25Y25*%
%MOIN*%
G70*
G01*
G75*
%ADD17C,0.05906*%
%ADD18R,0.05906X0.05906*%
%ADD19R,0.05906X0.05906*%
G36*
X528000Y105000D02*
X445000D01*
Y185000D01*
X528000D01*
Y105000D01*
D02*
G37*
%LPC*%
G36*
X458000Y165921D02*
Y162500D01*
X461421D01*
X461351Y163032D01*
X460953Y163993D01*
X460319Y164819D01*
X459493Y165453D01*
X458532Y165851D01*
X458000Y165921D01*
D02*
G37*
G36*
X457000D02*
X456468Y165851D01*
X455507Y165453D01*
X454681Y164819D01*
X454047Y163993D01*
X453649Y163032D01*
X453579Y162500D01*
X457000D01*
Y165921D01*
D02*
G37*
G36*
X471453Y165953D02*
X463547D01*
Y158769D01*
X463085Y158578D01*
X461159Y160504D01*
X461351Y160968D01*
X461421Y161500D01*
X458000D01*
Y158079D01*
X458532Y158149D01*
X458996Y158341D01*
X464219Y153119D01*
X464715Y152787D01*
X465300Y152671D01*
X471367D01*
X472584Y151453D01*
X472377Y150953D01*
X466047D01*
Y143047D01*
X472971D01*
Y140333D01*
X472471Y140087D01*
X471993Y140453D01*
X471032Y140851D01*
X470000Y140987D01*
X468968Y140851D01*
X468007Y140453D01*
X467181Y139819D01*
X466547Y138993D01*
X466149Y138032D01*
X466013Y137000D01*
X466149Y135968D01*
X466547Y135007D01*
X467181Y134181D01*
X468007Y133547D01*
X468968Y133149D01*
X470000Y133013D01*
X471032Y133149D01*
X471993Y133547D01*
X472471Y133913D01*
X472971Y133667D01*
Y132133D01*
X471496Y130659D01*
X471032Y130851D01*
X470500Y130921D01*
Y127500D01*
X473921D01*
X473851Y128032D01*
X473659Y128496D01*
X475581Y130419D01*
X475913Y130915D01*
X476029Y131500D01*
Y151700D01*
X475913Y152285D01*
X475581Y152781D01*
X473081Y155281D01*
X472585Y155613D01*
X472000Y155729D01*
X465934D01*
X464078Y157585D01*
X464269Y158047D01*
X471453D01*
Y165953D01*
D02*
G37*
G36*
X457000Y161500D02*
X453579D01*
X453649Y160968D01*
X454047Y160007D01*
X454681Y159181D01*
X455507Y158547D01*
X456468Y158149D01*
X457000Y158079D01*
Y161500D01*
D02*
G37*
G36*
X469500Y130921D02*
X468968Y130851D01*
X468007Y130453D01*
X467181Y129819D01*
X466547Y128993D01*
X466149Y128032D01*
X466079Y127500D01*
X469500D01*
Y130921D01*
D02*
G37*
G36*
X473921Y126500D02*
X470500D01*
Y123079D01*
X471032Y123149D01*
X471993Y123547D01*
X472819Y124181D01*
X473453Y125007D01*
X473851Y125968D01*
X473921Y126500D01*
D02*
G37*
G36*
X469500D02*
X466079D01*
X466149Y125968D01*
X466547Y125007D01*
X467181Y124181D01*
X468007Y123547D01*
X468968Y123149D01*
X469500Y123079D01*
Y126500D01*
D02*
G37*
G36*
X470000Y120987D02*
X468968Y120851D01*
X468007Y120453D01*
X467181Y119819D01*
X466547Y118993D01*
X466149Y118032D01*
X466013Y117000D01*
X466149Y115968D01*
X466547Y115007D01*
X467181Y114181D01*
X468007Y113547D01*
X468968Y113149D01*
X470000Y113013D01*
X471032Y113149D01*
X471993Y113547D01*
X472819Y114181D01*
X473453Y115007D01*
X473851Y115968D01*
X473987Y117000D01*
X473851Y118032D01*
X473453Y118993D01*
X472819Y119819D01*
X471993Y120453D01*
X471032Y120851D01*
X470000Y120987D01*
D02*
G37*
%LPD*%
D17*
X457500Y162000D02*
D03*
X470000Y117000D02*
D03*
Y127000D02*
D03*
Y137000D02*
D03*
X637500Y174500D02*
D03*
X647500D02*
D03*
X657500D02*
D03*
X574000Y178000D02*
D03*
X663000Y155500D02*
D03*
X652000Y154500D02*
D03*
X642000Y144500D02*
D03*
X632000Y154500D02*
D03*
X605500Y112500D02*
D03*
X595500Y122500D02*
D03*
X605500Y132500D02*
D03*
D18*
X467500Y162000D02*
D03*
X667500Y174500D02*
D03*
D19*
X470000Y147000D02*
D03*
X574000Y188000D02*
D03*
X663000Y145500D02*
D03*
M02*
