G04 Layer_Color=8388736*
%FSLAX25Y25*%
%MOIN*%
G70*
G01*
G75*
%ADD23R,0.05131X0.06312*%
%ADD24O,0.03162X0.10839*%
%ADD25O,0.10839X0.03162*%
%ADD26R,0.04343X0.03556*%
%ADD27R,0.06312X0.05131*%
%ADD28R,0.03556X0.04343*%
%ADD29C,0.06706*%
%ADD30R,0.06706X0.06706*%
%ADD31R,0.06706X0.06706*%
D23*
X500953Y116000D02*
D03*
X495047D02*
D03*
X487453Y166500D02*
D03*
X481547D02*
D03*
X506953D02*
D03*
X501047D02*
D03*
X485953Y116000D02*
D03*
X480047D02*
D03*
X515453D02*
D03*
X509547D02*
D03*
X521453Y166500D02*
D03*
X515547D02*
D03*
X613453Y164500D02*
D03*
X607547D02*
D03*
X595447Y196000D02*
D03*
X601353D02*
D03*
D24*
X480500Y129606D02*
D03*
X485500D02*
D03*
X490500D02*
D03*
X495500D02*
D03*
X480500Y155394D02*
D03*
X485500D02*
D03*
X490500D02*
D03*
X495500D02*
D03*
X505500Y129606D02*
D03*
X510500D02*
D03*
X515500D02*
D03*
X520500D02*
D03*
X505500Y155394D02*
D03*
X510500D02*
D03*
X515500D02*
D03*
X520500D02*
D03*
X580500Y139394D02*
D03*
X575500D02*
D03*
X570500D02*
D03*
X565500D02*
D03*
X580500Y113606D02*
D03*
X575500D02*
D03*
X570500D02*
D03*
X565500D02*
D03*
D25*
X587106Y187000D02*
D03*
Y182000D02*
D03*
Y177000D02*
D03*
Y172000D02*
D03*
X612894Y187000D02*
D03*
Y182000D02*
D03*
Y177000D02*
D03*
Y172000D02*
D03*
X639106Y126500D02*
D03*
Y121500D02*
D03*
Y116500D02*
D03*
Y111500D02*
D03*
X664894Y126500D02*
D03*
Y121500D02*
D03*
Y116500D02*
D03*
Y111500D02*
D03*
D26*
X601500Y152547D02*
D03*
Y158453D02*
D03*
X605500Y145953D02*
D03*
Y140047D02*
D03*
X587500Y116453D02*
D03*
Y110547D02*
D03*
X572500Y152547D02*
D03*
Y158453D02*
D03*
D27*
X583500Y153047D02*
D03*
Y158953D02*
D03*
X563500Y152047D02*
D03*
Y157953D02*
D03*
X593000Y158953D02*
D03*
Y153047D02*
D03*
X557500Y123047D02*
D03*
Y128953D02*
D03*
X626500Y115047D02*
D03*
Y120953D02*
D03*
D28*
X612047Y141000D02*
D03*
X617953D02*
D03*
X628953Y174000D02*
D03*
X623047D02*
D03*
X623547Y136500D02*
D03*
X629453D02*
D03*
X574453Y167500D02*
D03*
X568547D02*
D03*
X614453Y154000D02*
D03*
X608547D02*
D03*
D29*
X457500Y162000D02*
D03*
X470000Y117000D02*
D03*
Y127000D02*
D03*
Y137000D02*
D03*
X637500Y174500D02*
D03*
X647500D02*
D03*
X657500D02*
D03*
X574000Y178000D02*
D03*
X663000Y155500D02*
D03*
X652000Y154500D02*
D03*
X642000Y144500D02*
D03*
X632000Y154500D02*
D03*
X605500Y112500D02*
D03*
X595500Y122500D02*
D03*
X605500Y132500D02*
D03*
D30*
X467500Y162000D02*
D03*
X667500Y174500D02*
D03*
D31*
X470000Y147000D02*
D03*
X574000Y188000D02*
D03*
X663000Y145500D02*
D03*
M02*
