M48
;Layer_Color=9474304
;FILE_FORMAT=2:5
INCH,TZ
;TYPE=PLATED
T1F00S00C0.03150
T2F00S00C0.03543
%
T01
X605500Y112500
X595500Y122500
X605500Y132500
X642000Y144500
X652000Y154500
X632000
T02
X470000Y117000
Y127000
Y137000
Y147000
X663000Y145500
Y155500
X667500Y174500
X657500
X647500
X637500
X574000Y178000
Y188000
X467500Y162000
X457500
M30
