G04 Layer_Physical_Order=1*
G04 Layer_Color=255*
%FSLAX25Y25*%
%MOIN*%
G70*
G01*
G75*
%ADD10C,0.05906*%
%ADD11R,0.05906X0.05906*%
%ADD12R,0.04331X0.05512*%
%ADD13R,0.05512X0.04331*%
%ADD14O,0.02362X0.08661*%
%ADD15R,0.03543X0.02756*%
%ADD16C,0.02000*%
G36*
X206693Y433628D02*
X206299Y433465D01*
X110236D01*
Y494095D01*
X206693D01*
Y433628D01*
D02*
G37*
%LPC*%
G36*
X153335Y487504D02*
X148280D01*
X147499Y487349D01*
X146838Y486906D01*
X144444Y484513D01*
X144002Y483851D01*
X143847Y483071D01*
Y478797D01*
X142679Y477630D01*
X133681D01*
X132901Y477474D01*
X132239Y477033D01*
X129687Y474480D01*
X122673D01*
Y476394D01*
X114768D01*
Y468488D01*
X122673D01*
Y470402D01*
X130413D01*
X130683Y469965D01*
X129483Y468765D01*
X129041Y468103D01*
X128886Y467323D01*
Y440158D01*
X129041Y439377D01*
X129483Y438716D01*
X132633Y435566D01*
X133294Y435124D01*
X134075Y434969D01*
X156909D01*
X157690Y435124D01*
X158351Y435566D01*
X159587Y436801D01*
X160822Y435566D01*
X161483Y435124D01*
X162264Y434969D01*
X176594D01*
X177375Y435124D01*
X178036Y435566D01*
X181776Y439306D01*
X181777Y439306D01*
X182219Y439968D01*
X182374Y440748D01*
Y450575D01*
X183500D01*
Y458087D01*
X174929D01*
Y454331D01*
Y450575D01*
X178296D01*
Y441593D01*
X175750Y439047D01*
X163108D01*
X161626Y440530D01*
Y441071D01*
X162406Y441669D01*
X163039Y442495D01*
X163438Y443456D01*
X163574Y444488D01*
X163438Y445520D01*
X163039Y446482D01*
X162406Y447307D01*
X161580Y447941D01*
X160618Y448339D01*
X159587Y448475D01*
X158555Y448339D01*
X157593Y447941D01*
X156767Y447307D01*
X156134Y446482D01*
X155736Y445520D01*
X155600Y444488D01*
X155736Y443456D01*
X156134Y442495D01*
X156767Y441669D01*
X157547Y441071D01*
Y440530D01*
X156065Y439047D01*
X134920D01*
X132964Y441002D01*
Y466478D01*
X136100Y469614D01*
X145407D01*
X145558Y469299D01*
X145581Y469114D01*
X143657Y467190D01*
X143214Y466528D01*
X143180Y466354D01*
X140087D01*
Y463189D01*
X139587D01*
Y462689D01*
X135831D01*
Y460024D01*
Y454118D01*
X137547D01*
Y448441D01*
X135634D01*
Y440535D01*
X143539D01*
Y448441D01*
X141626D01*
Y454118D01*
X143342D01*
Y455678D01*
X143588Y455841D01*
X146540Y458794D01*
X146982Y459456D01*
X147079Y459943D01*
X147579Y459894D01*
Y457087D01*
X147749Y456236D01*
X148231Y455514D01*
X148952Y455032D01*
X149303Y454962D01*
Y460236D01*
X149803D01*
Y460736D01*
X152027D01*
Y463386D01*
X151858Y464237D01*
X151376Y464958D01*
X151048Y465177D01*
X151199Y465677D01*
X153407D01*
X153559Y465177D01*
X153231Y464958D01*
X152749Y464237D01*
X152579Y463386D01*
Y457087D01*
X152749Y456236D01*
X152764Y456213D01*
Y455650D01*
X152919Y454869D01*
X153361Y454208D01*
X157042Y450527D01*
X157704Y450084D01*
X158484Y449929D01*
X165514D01*
X167273Y448169D01*
X167241Y447671D01*
X166768Y447307D01*
X166134Y446482D01*
X165736Y445520D01*
X165600Y444488D01*
X165736Y443456D01*
X166134Y442495D01*
X166768Y441669D01*
X167593Y441036D01*
X168555Y440637D01*
X169587Y440501D01*
X170618Y440637D01*
X171580Y441036D01*
X172406Y441669D01*
X173039Y442495D01*
X173438Y443456D01*
X173574Y444488D01*
X173438Y445520D01*
X173039Y446482D01*
X172406Y447307D01*
X171626Y447906D01*
Y448740D01*
X171626Y448740D01*
X171471Y449520D01*
X171124Y450040D01*
X171099Y450270D01*
X171320Y450546D01*
X171545Y450575D01*
X171712Y450575D01*
X173929D01*
Y453831D01*
X171264D01*
Y451058D01*
X171264Y450936D01*
X170838Y450521D01*
X170687Y450525D01*
X170686Y450526D01*
X170683Y450528D01*
X167800Y453410D01*
X167139Y453853D01*
X166358Y454008D01*
X159329D01*
X158732Y454605D01*
X158855Y454844D01*
X159026Y455017D01*
X159803Y454863D01*
X160654Y455032D01*
X161376Y455514D01*
X161858Y456236D01*
X162027Y457087D01*
Y463386D01*
X161858Y464237D01*
X161842Y464260D01*
Y465610D01*
X161687Y466391D01*
X161245Y467052D01*
X159139Y469158D01*
X158477Y469600D01*
X157697Y469756D01*
X149120D01*
X148970Y470071D01*
X148947Y470256D01*
X151245Y472554D01*
X151687Y473216D01*
X151842Y473996D01*
Y475110D01*
X151858Y475133D01*
X152027Y475984D01*
Y482283D01*
X151944Y482702D01*
X152280Y483102D01*
X152652Y482649D01*
X152579Y482283D01*
Y475984D01*
X152749Y475133D01*
X153231Y474412D01*
X153952Y473930D01*
X154803Y473760D01*
X155654Y473930D01*
X156376Y474412D01*
X156858Y475133D01*
X157027Y475984D01*
Y482283D01*
X156858Y483135D01*
X156842Y483157D01*
Y483996D01*
X156687Y484776D01*
X156245Y485438D01*
X154777Y486906D01*
X154115Y487349D01*
X153335Y487504D01*
D02*
G37*
G36*
X169508Y487866D02*
X162815D01*
X162035Y487711D01*
X161373Y487269D01*
X158361Y484257D01*
X157919Y483595D01*
X157861Y483303D01*
X157749Y483135D01*
X157579Y482283D01*
Y475984D01*
X157749Y475133D01*
X158231Y474412D01*
X158952Y473930D01*
X159803Y473760D01*
X160654Y473930D01*
X161376Y474412D01*
X161858Y475133D01*
X162027Y475984D01*
Y481688D01*
X162079Y481723D01*
X162579Y481456D01*
Y475984D01*
X162749Y475133D01*
X162764Y475110D01*
Y473996D01*
X162919Y473216D01*
X163361Y472554D01*
X168657Y467259D01*
X169318Y466817D01*
X170098Y466662D01*
X170098Y466662D01*
X172642D01*
Y466323D01*
X178185D01*
Y470402D01*
X193508D01*
Y468488D01*
X201413D01*
Y476394D01*
X193508D01*
Y474480D01*
X174683D01*
X173909Y475254D01*
Y483464D01*
X173754Y484245D01*
X173312Y484906D01*
X170950Y487269D01*
X170288Y487711D01*
X169508Y487866D01*
D02*
G37*
G36*
X139087Y466354D02*
X135831D01*
Y463689D01*
X139087D01*
Y466354D01*
D02*
G37*
G36*
X164803Y465610D02*
X163952Y465440D01*
X163231Y464958D01*
X162749Y464237D01*
X162579Y463386D01*
Y457087D01*
X162749Y456236D01*
X163231Y455514D01*
X163952Y455032D01*
X164803Y454863D01*
X165654Y455032D01*
X166376Y455514D01*
X166858Y456236D01*
X167027Y457087D01*
Y458197D01*
X168720D01*
X169501Y458352D01*
X170162Y458794D01*
X172124Y460756D01*
X172642D01*
Y460417D01*
X178185D01*
Y465173D01*
X172642D01*
Y464834D01*
X171280D01*
X170499Y464679D01*
X169838Y464237D01*
X167876Y462275D01*
X167027D01*
Y463386D01*
X166858Y464237D01*
X166376Y464958D01*
X165654Y465440D01*
X164803Y465610D01*
D02*
G37*
G36*
X152027Y459736D02*
X150303D01*
Y454962D01*
X150654Y455032D01*
X151376Y455514D01*
X151858Y456236D01*
X152027Y457087D01*
Y459736D01*
D02*
G37*
G36*
X173929Y458087D02*
X171264D01*
Y454831D01*
X173929D01*
Y458087D01*
D02*
G37*
G36*
X150087Y448409D02*
Y444988D01*
X153508D01*
X153438Y445520D01*
X153039Y446482D01*
X152406Y447307D01*
X151580Y447941D01*
X150619Y448339D01*
X150087Y448409D01*
D02*
G37*
G36*
X149087D02*
X148555Y448339D01*
X147593Y447941D01*
X146767Y447307D01*
X146134Y446482D01*
X145736Y445520D01*
X145666Y444988D01*
X149087D01*
Y448409D01*
D02*
G37*
G36*
X153508Y443988D02*
X150087D01*
Y440567D01*
X150619Y440637D01*
X151580Y441036D01*
X152406Y441669D01*
X153039Y442495D01*
X153438Y443456D01*
X153508Y443988D01*
D02*
G37*
G36*
X149087D02*
X145666D01*
X145736Y443456D01*
X146134Y442495D01*
X146767Y441669D01*
X147593Y441036D01*
X148555Y440637D01*
X149087Y440567D01*
Y443988D01*
D02*
G37*
%LPD*%
G36*
X169831Y482620D02*
Y474409D01*
X169986Y473629D01*
X170428Y472967D01*
X172156Y471240D01*
X171949Y470740D01*
X170943D01*
X166842Y474841D01*
Y475110D01*
X166858Y475133D01*
X167027Y475984D01*
Y482283D01*
X166858Y483135D01*
X166716Y483347D01*
X166952Y483788D01*
X168663D01*
X169831Y482620D01*
D02*
G37*
D10*
X169587Y444488D02*
D03*
X159587D02*
D03*
X149587D02*
D03*
D11*
X139587D02*
D03*
X118720Y472441D02*
D03*
X197461D02*
D03*
D12*
X174429Y454331D02*
D03*
X180335D02*
D03*
D13*
X139587Y463189D02*
D03*
Y457283D02*
D03*
D14*
X149803Y460236D02*
D03*
X154803D02*
D03*
X159803D02*
D03*
X164803D02*
D03*
X149803Y479134D02*
D03*
X154803D02*
D03*
X159803D02*
D03*
X164803D02*
D03*
D15*
X175413Y462795D02*
D03*
Y468701D02*
D03*
D16*
X180335Y440748D02*
Y454331D01*
X176594Y437008D02*
X180335Y440748D01*
X162264Y437008D02*
X176594D01*
X159587Y439685D02*
X162264Y437008D01*
X159587Y439685D02*
Y444488D01*
X164803Y460236D02*
X168720D01*
X171280Y462795D01*
X175413D01*
X164803Y473996D02*
Y479134D01*
Y473996D02*
X170098Y468701D01*
X175413D01*
X159803Y460236D02*
Y465610D01*
X157697Y467717D02*
X159803Y465610D01*
X147067Y467717D02*
X157697D01*
X145098Y465748D02*
X147067Y467717D01*
X145098Y460236D02*
Y465748D01*
X142146Y457283D02*
X145098Y460236D01*
X139587Y457283D02*
X142146D01*
X169508Y485827D02*
X171870Y483464D01*
Y474409D02*
Y483464D01*
Y474409D02*
X173839Y472441D01*
X162815Y485827D02*
X169508D01*
X173839Y472441D02*
X195151D01*
X169587Y444488D02*
Y448740D01*
X166358Y451968D02*
X169587Y448740D01*
X158484Y451968D02*
X166358D01*
X154803Y455650D02*
X158484Y451968D01*
X154803Y455650D02*
Y460236D01*
X159803Y479134D02*
Y482815D01*
X162815Y485827D01*
X154803Y479134D02*
Y483996D01*
X153335Y485465D02*
X154803Y483996D01*
X148280Y485465D02*
X153335D01*
X145886Y483071D02*
X148280Y485465D01*
X145886Y477953D02*
Y483071D01*
X143524Y475591D02*
X145886Y477953D01*
X133681Y475591D02*
X143524D01*
X130532Y472441D02*
X133681Y475591D01*
X118720Y472441D02*
X130532D01*
X149803Y473996D02*
Y479134D01*
X147461Y471654D02*
X149803Y473996D01*
X135256Y471654D02*
X147461D01*
X130925Y467323D02*
X135256Y471654D01*
X130925Y440158D02*
Y467323D01*
Y440158D02*
X134075Y437008D01*
X156909D01*
X159587Y439685D01*
X139587Y444488D02*
X139587Y444488D01*
X139587Y444488D02*
Y457283D01*
X149803Y444902D02*
X149823Y444882D01*
X195151Y472441D02*
X196935Y470657D01*
M02*
