G04 Layer_Color=65535*
%FSLAX25Y25*%
%MOIN*%
G70*
G01*
G75*
%ADD17C,0.01575*%
%ADD18C,0.00984*%
%ADD19C,0.00787*%
%ADD20C,0.01000*%
D17*
X164784Y470079D02*
G03*
X164784Y470079I-787J0D01*
G01*
D18*
X168642Y479134D02*
G03*
X168642Y479134I-492J0D01*
G01*
X119213Y480512D02*
G03*
X119213Y480512I-492J0D01*
G01*
X197953D02*
G03*
X197953Y480512I-492J0D01*
G01*
D19*
X147461Y466142D02*
Y473228D01*
X167146Y466142D02*
Y473228D01*
X147461Y466142D02*
X167146D01*
X147461Y473228D02*
X167146D01*
X134587Y439488D02*
Y449488D01*
X174587D01*
X134587Y439488D02*
X174587D01*
Y449488D01*
X113209Y466929D02*
Y477953D01*
X113209Y466929D02*
X124232D01*
Y477953D01*
X113209Y477953D02*
X124232D01*
X191949Y466929D02*
Y477953D01*
X191949Y466929D02*
X202972D01*
Y477953D01*
X191949Y477953D02*
X202972D01*
X174035Y464961D02*
Y466535D01*
X176791Y464961D02*
Y466535D01*
D20*
X117809Y490498D02*
X113810D01*
Y484500D01*
X117809D01*
X113810Y487499D02*
X115810D01*
X123807Y484500D02*
X119808D01*
X123807Y488499D01*
Y489498D01*
X122807Y490498D01*
X120808D01*
X119808Y489498D01*
X196509Y490498D02*
X192510D01*
Y484500D01*
X196509D01*
X192510Y487499D02*
X194510D01*
X198508Y484500D02*
X200508D01*
X199508D01*
Y490498D01*
X198508Y489498D01*
M02*
