M48
;Layer_Color=9474304
;FILE_FORMAT=2:5
INCH,TZ
;TYPE=PLATED
T1F00S00C0.03150
T2F00S00C0.03543
%
T01
X396000Y167000
X391000Y174500
X401000
T02
X383500Y124000
X393500
X403500
X413500
X428000
X438000
X448000
X458000
X440000Y165500
Y175500
X435000Y187500
X425000
X412000
X402000
X392000
X382000
X445000
X455000
M30
