G04 Layer_Color=16711935*
%FSLAX25Y25*%
%MOIN*%
G70*
G01*
G75*
%ADD14C,0.01000*%
%ADD29C,0.00600*%
D14*
X366000Y212500D02*
X368000D01*
X366000Y100000D02*
X368000D01*
X367000Y212500D02*
X369000Y206500D01*
X365000D02*
X367000Y212500D01*
Y100000D02*
X369000Y106000D01*
X365000D02*
X367000Y100000D01*
Y187840D02*
Y212500D01*
Y100000D02*
Y124660D01*
X472500Y220500D02*
Y222500D01*
X375000Y220500D02*
Y222500D01*
X466500Y219500D02*
X472500Y221500D01*
X466500Y223500D02*
X472500Y221500D01*
X375000D02*
X381000Y219500D01*
X375000Y221500D02*
X381000Y223500D01*
X455340Y221500D02*
X472500D01*
X375000D02*
X392160D01*
X375000Y100000D02*
Y212500D01*
X472500D01*
Y100000D02*
Y212500D01*
X375000Y100000D02*
X472500D01*
D29*
X370599Y129658D02*
Y125660D01*
X366600Y129658D01*
X365601D01*
X364601Y128659D01*
Y126659D01*
X365601Y125660D01*
Y131658D02*
X364601Y132657D01*
Y134657D01*
X365601Y135656D01*
X366600D01*
X367600Y134657D01*
X368600Y135656D01*
X369599D01*
X370599Y134657D01*
Y132657D01*
X369599Y131658D01*
X368600D01*
X367600Y132657D01*
X366600Y131658D01*
X365601D01*
X367600Y132657D02*
Y134657D01*
X370599Y137656D02*
X369599D01*
Y138655D01*
X370599D01*
Y137656D01*
X364601Y146653D02*
Y142654D01*
X367600D01*
X366600Y144653D01*
Y145653D01*
X367600Y146653D01*
X369599D01*
X370599Y145653D01*
Y143654D01*
X369599Y142654D01*
X364601Y148652D02*
Y152651D01*
X365601D01*
X369599Y148652D01*
X370599D01*
X364601Y158649D02*
Y154650D01*
X367600D01*
X366600Y156650D01*
Y157649D01*
X367600Y158649D01*
X369599D01*
X370599Y157649D01*
Y155650D01*
X369599Y154650D01*
X370599Y168646D02*
X368600Y166646D01*
X366600D01*
X364601Y168646D01*
X370599Y171645D02*
X366600D01*
Y172644D01*
X367600Y173644D01*
X370599D01*
X367600D01*
X366600Y174644D01*
X367600Y175644D01*
X370599D01*
Y177643D02*
X366600D01*
Y178643D01*
X367600Y179642D01*
X370599D01*
X367600D01*
X366600Y180642D01*
X367600Y181642D01*
X370599D01*
Y183641D02*
X368600Y185640D01*
X366600D01*
X364601Y183641D01*
X397158Y217901D02*
X393160D01*
X397158Y221900D01*
Y222899D01*
X396159Y223899D01*
X394159D01*
X393160Y222899D01*
X402157Y217901D02*
Y223899D01*
X399158Y220900D01*
X403157D01*
X405156Y217901D02*
Y218901D01*
X406155D01*
Y217901D01*
X405156D01*
X410154Y223899D02*
X414153D01*
Y222899D01*
X410154Y218901D01*
Y217901D01*
X420151Y223899D02*
X418152Y222899D01*
X416152Y220900D01*
Y218901D01*
X417152Y217901D01*
X419151D01*
X420151Y218901D01*
Y219900D01*
X419151Y220900D01*
X416152D01*
X426149Y223899D02*
X422150D01*
Y220900D01*
X424150Y221900D01*
X425149D01*
X426149Y220900D01*
Y218901D01*
X425149Y217901D01*
X423150D01*
X422150Y218901D01*
X436146Y217901D02*
X434146Y219900D01*
Y221900D01*
X436146Y223899D01*
X439145Y217901D02*
Y221900D01*
X440144D01*
X441144Y220900D01*
Y217901D01*
Y220900D01*
X442144Y221900D01*
X443144Y220900D01*
Y217901D01*
X445143D02*
Y221900D01*
X446143D01*
X447142Y220900D01*
Y217901D01*
Y220900D01*
X448142Y221900D01*
X449142Y220900D01*
Y217901D01*
X451141D02*
X453140Y219900D01*
Y221900D01*
X451141Y223899D01*
M02*
