G04 Layer_Color=255*
%FSLAX25Y25*%
%MOIN*%
G70*
G01*
G75*
%ADD10R,0.05512X0.04331*%
%ADD11R,0.04331X0.05512*%
%ADD12R,0.12402X0.12795*%
%ADD13R,0.12402X0.03543*%
%ADD15C,0.06299*%
%ADD16C,0.05906*%
%ADD17R,0.05906X0.05906*%
%ADD18R,0.05906X0.05906*%
D10*
X424500Y149547D02*
D03*
Y155453D02*
D03*
Y132547D02*
D03*
Y138453D02*
D03*
X380500Y160047D02*
D03*
Y165953D02*
D03*
X413500Y167047D02*
D03*
Y172953D02*
D03*
D11*
X424047Y166500D02*
D03*
X429953D02*
D03*
D12*
X383516Y145000D02*
D03*
X436516Y143500D02*
D03*
D13*
X410484Y154055D02*
D03*
Y145000D02*
D03*
Y135945D02*
D03*
X463484Y152555D02*
D03*
Y143500D02*
D03*
Y134445D02*
D03*
D15*
X391000Y174500D02*
D03*
X396000Y167000D02*
D03*
X401000Y174500D02*
D03*
D16*
X440000Y175500D02*
D03*
X458000Y124000D02*
D03*
X448000D02*
D03*
X438000D02*
D03*
X382000Y187500D02*
D03*
X392000D02*
D03*
X402000D02*
D03*
X413500Y124000D02*
D03*
X403500D02*
D03*
X393500D02*
D03*
X425000Y187500D02*
D03*
X435000D02*
D03*
X445000D02*
D03*
D17*
X440000Y165500D02*
D03*
D18*
X428000Y124000D02*
D03*
X412000Y187500D02*
D03*
X383500Y124000D02*
D03*
X455000Y187500D02*
D03*
M02*
