G04 Layer_Color=16711935*
%FSLAX25Y25*%
%MOIN*%
G70*
G01*
G75*
%ADD14C,0.01000*%
%ADD30C,0.00394*%
D14*
X361500Y97000D02*
Y228000D01*
X429000Y97000D02*
X478500D01*
Y228000D01*
X361500D02*
X478500D01*
X361500Y97000D02*
X429000D01*
D30*
X421646Y148169D02*
Y156831D01*
X427354Y148169D02*
Y156831D01*
X421646Y148169D02*
X427354D01*
X421646Y156831D02*
X427354D01*
X421646Y131169D02*
Y139831D01*
X427354Y131169D02*
Y139831D01*
X421646Y131169D02*
X427354D01*
X421646Y139831D02*
X427354D01*
X377646Y158669D02*
Y167331D01*
X383354Y158669D02*
Y167331D01*
X377646Y158669D02*
X383354D01*
X377646Y167331D02*
X383354D01*
X410646Y165669D02*
Y174331D01*
X416354Y165669D02*
Y174331D01*
X410646Y165669D02*
X416354D01*
X410646Y174331D02*
X416354D01*
X422669Y169354D02*
X431331D01*
X422669Y163646D02*
X431331D01*
X422669D02*
Y169354D01*
X431331Y163646D02*
Y169354D01*
X389717Y158189D02*
X404283D01*
X389717Y131811D02*
X404283D01*
X389717D02*
Y158189D01*
X404283Y131811D02*
Y158189D01*
X442717Y156689D02*
X457283D01*
X442717Y130311D02*
X457283D01*
X442717D02*
Y156689D01*
X457283Y130311D02*
Y156689D01*
M02*
