G04 Layer_Color=65535*
%FSLAX25Y25*%
%MOIN*%
G70*
G01*
G75*
%ADD14C,0.01000*%
%ADD19C,0.00787*%
%ADD20C,0.00984*%
D14*
X419000Y124499D02*
X422999D01*
X420999Y126498D02*
Y122500D01*
X410000Y180999D02*
X413999D01*
X411999Y182998D02*
Y179000D01*
X380500Y131499D02*
X384499D01*
X382499Y133498D02*
Y129500D01*
X453000Y180999D02*
X456999D01*
X454999Y182998D02*
Y179000D01*
D19*
X388000Y179500D02*
G03*
X404133Y179500I8066J-6302D01*
G01*
X388000D02*
X404133D01*
X390898Y158189D02*
X403102D01*
X390898Y131811D02*
X403102D01*
X390898D02*
Y158189D01*
X403102Y131811D02*
Y158189D01*
X443898Y156689D02*
X456102D01*
X443898Y130311D02*
X456102D01*
X443898D02*
Y156689D01*
X456102Y130311D02*
Y156689D01*
X450000Y177167D02*
X463333D01*
X465000Y175500D01*
X463333Y173833D02*
X465000Y175500D01*
X450000Y173833D02*
X463333D01*
X450000Y167167D02*
X463333D01*
X463333Y167167D02*
X465000Y165500D01*
X463333Y163833D02*
X465000Y165500D01*
X450000Y163833D02*
X463333D01*
X445000Y160500D02*
Y180500D01*
Y160500D02*
X450000D01*
X445000Y180500D02*
X450000D01*
Y160500D02*
Y180500D01*
X423000Y119000D02*
X463000D01*
X459667Y100667D02*
Y114000D01*
X458000Y99000D02*
X459667Y100667D01*
X456333D02*
X458000Y99000D01*
X456333Y100667D02*
Y114000D01*
X449667Y100667D02*
Y114000D01*
X448000Y99000D02*
X449667Y100667D01*
X446333D02*
X448000Y99000D01*
X446333Y100667D02*
Y114000D01*
X439667Y100667D02*
Y114000D01*
X438000Y99000D02*
X439667Y100667D01*
X436333D02*
X438000Y99000D01*
X436333Y100667D02*
Y114000D01*
X429667Y100667D02*
Y114000D01*
X428000Y99000D02*
X429667Y100667D01*
X426333D02*
X428000Y99000D01*
X426333Y100667D02*
Y114000D01*
X423000D02*
Y119000D01*
X463000Y114000D02*
Y119000D01*
X423000Y114000D02*
X463000D01*
X377000Y192500D02*
X417000D01*
X380333Y197500D02*
Y210833D01*
X382000Y212500D01*
X383667Y210833D01*
Y197500D02*
Y210833D01*
X390333Y197500D02*
Y210833D01*
X392000Y212500D01*
X393667Y210833D01*
Y197500D02*
Y210833D01*
X400333Y197500D02*
Y210833D01*
X402000Y212500D01*
X403667Y210833D01*
Y197500D02*
Y210833D01*
X410333Y197500D02*
Y210833D01*
X412000Y212500D01*
X413667Y210833D01*
Y197500D02*
Y210833D01*
X417000Y192500D02*
Y197500D01*
X377000Y192500D02*
Y197500D01*
X417000D01*
X378500Y119000D02*
X418500D01*
X415167Y100667D02*
Y114000D01*
X413500Y99000D02*
X415167Y100667D01*
X411833D02*
X413500Y99000D01*
X411833Y100667D02*
Y114000D01*
X405167Y100667D02*
Y114000D01*
X403500Y99000D02*
X405167Y100667D01*
X401833D02*
X403500Y99000D01*
X401833Y100667D02*
Y114000D01*
X395167Y100667D02*
Y114000D01*
X393500Y99000D02*
X395167Y100667D01*
X391833D02*
X393500Y99000D01*
X391833Y100667D02*
Y114000D01*
X385167Y100667D02*
Y114000D01*
X383500Y99000D02*
X385167Y100667D01*
X381833D02*
X383500Y99000D01*
X381833Y100667D02*
Y114000D01*
X378500D02*
Y119000D01*
X418500Y114000D02*
Y119000D01*
X378500Y114000D02*
X418500D01*
X420000Y192500D02*
X460000D01*
X423333Y197500D02*
Y210833D01*
X425000Y212500D01*
X426667Y210833D01*
Y197500D02*
Y210833D01*
X433333Y197500D02*
Y210833D01*
X435000Y212500D01*
X436667Y210833D01*
Y197500D02*
Y210833D01*
X443333Y197500D02*
Y210833D01*
X445000Y212500D01*
X446667Y210833D01*
Y197500D02*
Y210833D01*
X453333Y197500D02*
Y210833D01*
X455000Y212500D01*
X456667Y210833D01*
Y197500D02*
Y210833D01*
X460000Y192500D02*
Y197500D01*
X420000Y192500D02*
Y197500D01*
X460000D01*
D20*
X407909Y180327D02*
G03*
X407909Y180327I-492J0D01*
G01*
X410976Y132008D02*
G03*
X410976Y132008I-492J0D01*
G01*
X463976Y130508D02*
G03*
X463976Y130508I-492J0D01*
G01*
M02*
