G04 Layer_Physical_Order=1*
G04 Layer_Color=255*
%FSLAX25Y25*%
%MOIN*%
G70*
G01*
G75*
%ADD10R,0.05512X0.04331*%
%ADD11R,0.04331X0.05512*%
%ADD12R,0.12402X0.12795*%
%ADD13R,0.12402X0.03543*%
%ADD14C,0.01000*%
%ADD15C,0.06299*%
%ADD16C,0.05906*%
%ADD17R,0.05906X0.05906*%
%ADD18R,0.05906X0.05906*%
D10*
X424500Y149547D02*
D03*
Y155453D02*
D03*
Y132547D02*
D03*
Y138453D02*
D03*
X380500Y160047D02*
D03*
Y165953D02*
D03*
X413500Y167047D02*
D03*
Y172953D02*
D03*
D11*
X424047Y166500D02*
D03*
X429953D02*
D03*
D12*
X383516Y145000D02*
D03*
X436516Y143500D02*
D03*
D13*
X410484Y154055D02*
D03*
Y145000D02*
D03*
Y135945D02*
D03*
X463484Y152555D02*
D03*
Y143500D02*
D03*
Y134445D02*
D03*
D14*
X421653Y132547D02*
X424500D01*
X420239Y133961D02*
Y147586D01*
X422200Y149547D02*
X424500D01*
X463484Y152555D02*
Y190616D01*
X457262Y196838D02*
X463484Y190616D01*
X385003Y196838D02*
X457262D01*
X377522Y189358D02*
X385003Y196838D01*
X383936Y179200D02*
X396300D01*
X420239Y133961D02*
X421653Y132547D01*
X420239Y147586D02*
X422200Y149547D01*
X377522Y185613D02*
Y189358D01*
Y185613D02*
X383936Y179200D01*
X396300D02*
X401000Y174500D01*
X429953Y143500D02*
Y166500D01*
X422294Y167047D02*
X424047Y168800D01*
X416500Y172953D02*
Y185353D01*
Y172953D02*
Y185353D01*
X403947Y149547D02*
X422200D01*
X387500Y179200D02*
X396300D01*
X383936D02*
X387500D01*
X403755Y135945D02*
X410484D01*
X396000D02*
X403755D01*
X422897Y167650D02*
X424047Y168800D01*
X422294Y167047D02*
X422897Y167650D01*
X442500Y122150D02*
Y124000D01*
X429953Y161118D02*
Y166500D01*
Y143500D02*
Y161118D01*
X424047Y168800D02*
Y186547D01*
X436516Y135384D02*
Y143500D01*
X442500Y124000D02*
Y129400D01*
X429953Y161118D02*
X436516Y154555D01*
Y143500D02*
Y154555D01*
X386300Y178000D02*
X387500Y179200D01*
X386300Y167300D02*
Y178000D01*
Y167300D02*
X392900Y160700D01*
X427156D01*
X428756Y159100D01*
Y150203D02*
Y159100D01*
X428100Y149547D02*
X428756Y150203D01*
X424500Y149547D02*
X428100D01*
X402700Y137000D02*
X403755Y135945D01*
X402700Y137000D02*
Y148300D01*
X403947Y149547D01*
X410484Y154055D02*
X420302D01*
X421700Y155453D02*
X424500D01*
X421653Y132547D02*
X424500D01*
X420239Y133961D02*
Y147586D01*
X422200Y149547D02*
X424500D01*
X377522Y189358D02*
X385003Y196838D01*
X457262D01*
X463484Y190616D01*
Y152555D02*
Y190616D01*
X393500Y124000D02*
Y133445D01*
X402000Y187500D02*
X413500Y172953D01*
X423797Y192650D02*
X439850D01*
X445000Y187500D01*
X383500Y124000D02*
X383516Y124016D01*
X418200Y130000D02*
Y144000D01*
X410484Y145000D02*
X418200Y144000D01*
X428000Y124000D02*
X430800Y126800D01*
Y133600D01*
X424500Y138453D02*
X425947D01*
X408900Y119400D02*
X413500Y124000D01*
X391233Y137933D02*
Y152964D01*
X384151Y160047D02*
X391233Y152964D01*
X380500Y160047D02*
X384151D01*
X413500Y124000D02*
X421500Y116000D01*
X450000D01*
X396000Y167000D02*
X398709Y164291D01*
X455745Y134445D02*
X463484D01*
X408000Y169047D02*
Y174147D01*
X388300Y181200D02*
X400947D01*
X408100Y128600D02*
X415600D01*
X415700Y128500D01*
X418100Y125600D02*
X424191Y119509D01*
X436516Y135384D02*
X442500Y129400D01*
X436516Y143500D02*
X463484D01*
X435000Y187500D02*
X439600Y182900D01*
X446786D01*
X449493Y185607D01*
X444000Y194800D02*
X449493Y189307D01*
X392000Y187500D02*
X399300Y194800D01*
X420302Y154055D02*
X421700Y155453D01*
X380500Y165953D02*
X384000D01*
X395898Y154055D01*
X410484D01*
X416500Y185353D02*
X423797Y192650D01*
X393500Y133445D02*
X396000Y135945D01*
X425947Y138453D02*
X430800Y133600D01*
X418200Y130000D02*
X424200Y124000D01*
X428000D01*
X383516Y124016D02*
Y145000D01*
X382000Y187500D02*
X388300Y181200D01*
X400947D02*
X408000Y174147D01*
Y169047D02*
X410000Y167047D01*
X413500D01*
X453300Y132000D02*
X455745Y134445D01*
X453300Y128700D02*
Y132000D01*
Y128700D02*
X458000Y124000D01*
X410744Y164291D02*
X413500Y167047D01*
X398709Y164291D02*
X410744D01*
X450000Y116000D02*
X458000Y124000D01*
X389041Y135741D02*
X391233Y137933D01*
X389041Y122141D02*
Y135741D01*
Y122141D02*
X391783Y119400D01*
X408900D01*
X399300Y194800D02*
X444000D01*
X449493Y189307D02*
X449493Y185607D01*
X429953Y182453D02*
X435000Y187500D01*
X429953Y166500D02*
Y182453D01*
Y143500D02*
X436516D01*
X439858Y119509D02*
X442500Y122150D01*
X424191Y119509D02*
X439858Y119509D01*
X415700Y128500D02*
X418100Y125600D01*
X403500Y124000D02*
X408100Y128600D01*
X424047Y186547D02*
X425000Y187500D01*
X424047Y166500D02*
Y168800D01*
X413500Y167047D02*
X422294D01*
X442500Y124000D02*
X448000D01*
X413500Y172953D02*
X416500D01*
D15*
X391000Y174500D02*
D03*
X396000Y167000D02*
D03*
X401000Y174500D02*
D03*
D16*
X440000Y175500D02*
D03*
X458000Y124000D02*
D03*
X448000D02*
D03*
X438000D02*
D03*
X382000Y187500D02*
D03*
X392000D02*
D03*
X402000D02*
D03*
X413500Y124000D02*
D03*
X403500D02*
D03*
X393500D02*
D03*
X425000Y187500D02*
D03*
X435000D02*
D03*
X445000D02*
D03*
D17*
X440000Y165500D02*
D03*
D18*
X428000Y124000D02*
D03*
X412000Y187500D02*
D03*
X383500Y124000D02*
D03*
X455000Y187500D02*
D03*
M02*
