G04 Layer_Color=32768*
%FSLAX25Y25*%
%MOIN*%
G70*
G01*
G75*
%ADD30C,0.00394*%
%ADD31C,0.00197*%
D30*
X422532Y152500D02*
X426469D01*
X424500Y150531D02*
Y154468D01*
X421350Y146988D02*
Y158012D01*
X427650Y146988D02*
Y158012D01*
X421350Y146988D02*
X427650D01*
X421350Y158012D02*
X427650D01*
X422532Y135500D02*
X426469D01*
X424500Y133531D02*
Y137468D01*
X421350Y129988D02*
Y141012D01*
X427650Y129988D02*
Y141012D01*
X421350Y129988D02*
X427650D01*
X421350Y141012D02*
X427650D01*
X378532Y163000D02*
X382469D01*
X380500Y161031D02*
Y164968D01*
X377350Y157488D02*
Y168512D01*
X383650Y157488D02*
Y168512D01*
X377350Y157488D02*
X383650D01*
X377350Y168512D02*
X383650D01*
X411532Y170000D02*
X415469D01*
X413500Y168031D02*
Y171968D01*
X410350Y164488D02*
Y175512D01*
X416650Y164488D02*
Y175512D01*
X410350Y164488D02*
X416650D01*
X410350Y175512D02*
X416650D01*
X427000Y164531D02*
Y168468D01*
X425031Y166500D02*
X428968D01*
X421488Y169650D02*
X432512D01*
X421488Y163350D02*
X432512D01*
X421488D02*
Y169650D01*
X432512Y163350D02*
Y169650D01*
X397000Y143031D02*
Y146969D01*
X395031Y145000D02*
X398968D01*
X450000Y141531D02*
Y145469D01*
X448031Y143500D02*
X451968D01*
D31*
X376331Y159173D02*
X417669D01*
X376331Y130827D02*
X417669D01*
X376331D02*
Y159173D01*
X417669Y130827D02*
Y159173D01*
X429331Y157673D02*
X470669D01*
X429331Y129327D02*
X470669D01*
X429331D02*
Y157673D01*
X470669Y129327D02*
Y157673D01*
M02*
