G04 Layer_Color=8388736*
%FSLAX25Y25*%
%MOIN*%
G70*
G01*
G75*
%ADD21R,0.06312X0.05131*%
%ADD22R,0.05131X0.06312*%
%ADD23R,0.13202X0.13595*%
%ADD24R,0.13202X0.04343*%
%ADD25C,0.07099*%
%ADD26C,0.06706*%
%ADD27R,0.06706X0.06706*%
%ADD28R,0.06706X0.06706*%
D21*
X424500Y149547D02*
D03*
Y155453D02*
D03*
Y132547D02*
D03*
Y138453D02*
D03*
X380500Y160047D02*
D03*
Y165953D02*
D03*
X413500Y167047D02*
D03*
Y172953D02*
D03*
D22*
X424047Y166500D02*
D03*
X429953D02*
D03*
D23*
X383516Y145000D02*
D03*
X436516Y143500D02*
D03*
D24*
X410484Y154055D02*
D03*
Y145000D02*
D03*
Y135945D02*
D03*
X463484Y152555D02*
D03*
Y143500D02*
D03*
Y134445D02*
D03*
D25*
X391000Y174500D02*
D03*
X396000Y167000D02*
D03*
X401000Y174500D02*
D03*
D26*
X440000Y175500D02*
D03*
X458000Y124000D02*
D03*
X448000D02*
D03*
X438000D02*
D03*
X382000Y187500D02*
D03*
X392000D02*
D03*
X402000D02*
D03*
X413500Y124000D02*
D03*
X403500D02*
D03*
X393500D02*
D03*
X425000Y187500D02*
D03*
X435000D02*
D03*
X445000D02*
D03*
D27*
X440000Y165500D02*
D03*
D28*
X428000Y124000D02*
D03*
X412000Y187500D02*
D03*
X383500Y124000D02*
D03*
X455000Y187500D02*
D03*
M02*
