G04 Layer_Color=2752767*
%FSLAX25Y25*%
%MOIN*%
G70*
G01*
G75*
%ADD10C,0.00394*%
%ADD11C,0.01000*%
%ADD12C,0.00197*%
%ADD13C,0.00200*%
%ADD14C,0.00267*%
D10*
X388000Y179500D02*
G03*
X404133Y179500I8066J-6302D01*
G01*
X387934Y179799D02*
X404066D01*
X421646Y148169D02*
Y156831D01*
X427354Y148169D02*
Y156831D01*
X421646Y148169D02*
X427354D01*
X421646Y156831D02*
X427354D01*
X421646Y131169D02*
Y139831D01*
X427354Y131169D02*
Y139831D01*
X421646Y131169D02*
X427354D01*
X421646Y139831D02*
X427354D01*
X377646Y158669D02*
Y167331D01*
X383354Y158669D02*
Y167331D01*
X377646Y158669D02*
X383354D01*
X377646Y167331D02*
X383354D01*
X410646Y165669D02*
Y174331D01*
X416354Y165669D02*
Y174331D01*
X410646Y165669D02*
X416354D01*
X410646Y174331D02*
X416354D01*
X422669Y169354D02*
X431331D01*
X422669Y163646D02*
X431331D01*
X422669D02*
Y169354D01*
X431331Y163646D02*
Y169354D01*
X389717Y158189D02*
X404283D01*
X389717Y131811D02*
X404283D01*
X389717D02*
Y158189D01*
X404283Y131811D02*
Y158189D01*
X442717Y156689D02*
X457283D01*
X442717Y130311D02*
X457283D01*
X442717D02*
Y156689D01*
X457283Y130311D02*
Y156689D01*
X422532Y152500D02*
X426469D01*
X424500Y150531D02*
Y154468D01*
X421350Y146988D02*
Y158012D01*
X427650Y146988D02*
Y158012D01*
X421350Y146988D02*
X427650D01*
X421350Y158012D02*
X427650D01*
X422532Y135500D02*
X426469D01*
X424500Y133531D02*
Y137468D01*
X421350Y129988D02*
Y141012D01*
X427650Y129988D02*
Y141012D01*
X421350Y129988D02*
X427650D01*
X421350Y141012D02*
X427650D01*
X378532Y163000D02*
X382469D01*
X380500Y161031D02*
Y164968D01*
X377350Y157488D02*
Y168512D01*
X383650Y157488D02*
Y168512D01*
X377350Y157488D02*
X383650D01*
X377350Y168512D02*
X383650D01*
X411532Y170000D02*
X415469D01*
X413500Y168031D02*
Y171968D01*
X410350Y164488D02*
Y175512D01*
X416650Y164488D02*
Y175512D01*
X410350Y164488D02*
X416650D01*
X410350Y175512D02*
X416650D01*
X427000Y164531D02*
Y168468D01*
X425031Y166500D02*
X428968D01*
X421488Y169650D02*
X432512D01*
X421488Y163350D02*
X432512D01*
X421488D02*
Y169650D01*
X432512Y163350D02*
Y169650D01*
X397000Y143031D02*
Y146969D01*
X395031Y145000D02*
X398968D01*
X450000Y141531D02*
Y145469D01*
X448031Y143500D02*
X451968D01*
D11*
X361500Y97000D02*
Y228000D01*
X429000Y97000D02*
X478500D01*
Y228000D01*
X361500D02*
X478500D01*
X361500Y97000D02*
X429000D01*
D12*
X376331Y159173D02*
X417669D01*
X376331Y130827D02*
X417669D01*
X376331D02*
Y159173D01*
X417669Y130827D02*
Y159173D01*
X429331Y157673D02*
X470669D01*
X429331Y129327D02*
X470669D01*
X429331D02*
Y157673D01*
X470669Y129327D02*
Y157673D01*
D13*
X390200Y173700D02*
Y175300D01*
X391800D01*
Y173700D01*
X390200D01*
X395200Y166200D02*
Y167800D01*
X396800D01*
Y166200D01*
X395200D01*
X400200Y173700D02*
Y175300D01*
X401800D01*
Y173700D01*
X400200D01*
D14*
X440800Y175500D02*
G03*
X440800Y175500I-800J0D01*
G01*
Y165500D02*
G03*
X440800Y165500I-800J0D01*
G01*
X458800Y124000D02*
G03*
X458800Y124000I-800J0D01*
G01*
X448800D02*
G03*
X448800Y124000I-800J0D01*
G01*
X438800D02*
G03*
X438800Y124000I-800J0D01*
G01*
X428800D02*
G03*
X428800Y124000I-800J0D01*
G01*
X382800Y187500D02*
G03*
X382800Y187500I-800J0D01*
G01*
X392800D02*
G03*
X392800Y187500I-800J0D01*
G01*
X402800D02*
G03*
X402800Y187500I-800J0D01*
G01*
X412800D02*
G03*
X412800Y187500I-800J0D01*
G01*
X414300Y124000D02*
G03*
X414300Y124000I-800J0D01*
G01*
X404300D02*
G03*
X404300Y124000I-800J0D01*
G01*
X394300D02*
G03*
X394300Y124000I-800J0D01*
G01*
X384300D02*
G03*
X384300Y124000I-800J0D01*
G01*
X425800Y187500D02*
G03*
X425800Y187500I-800J0D01*
G01*
X435800D02*
G03*
X435800Y187500I-800J0D01*
G01*
X445800D02*
G03*
X445800Y187500I-800J0D01*
G01*
X455800D02*
G03*
X455800Y187500I-800J0D01*
G01*
M02*
