G04 Layer_Color=65535*
%FSLAX25Y25*%
%MOIN*%
G70*
G01*
G75*
%ADD18C,0.01000*%
%ADD19C,0.00394*%
%ADD20C,0.00197*%
%ADD25C,0.00984*%
%ADD26C,0.00787*%
%ADD27C,0.02362*%
D18*
X632501Y167000D02*
Y170999D01*
X630501Y168999D02*
X634500D01*
X453000Y180999D02*
X456999D01*
X454999Y182998D02*
Y179000D01*
X381000Y130499D02*
X384999D01*
X382999Y132498D02*
Y128500D01*
X410000Y180999D02*
X413999D01*
X411999Y182998D02*
Y179000D01*
X419000Y124499D02*
X422999D01*
X420999Y126498D02*
Y122500D01*
X641002Y122999D02*
Y121000D01*
X642002Y120000D01*
X646000D01*
X647000Y121000D01*
Y122999D01*
X646000Y123999D01*
X642002D01*
X641002Y122999D01*
X608999Y123998D02*
X605000D01*
Y120999D01*
X606999Y121999D01*
X607999D01*
X608999Y120999D01*
Y119000D01*
X607999Y118000D01*
X606000D01*
X605000Y119000D01*
X639999Y153000D02*
X636000D01*
X639999Y156999D01*
Y157998D01*
X638999Y158998D01*
X637000D01*
X636000Y157998D01*
X555499Y149500D02*
Y145501D01*
X557498Y147501D02*
X553500D01*
X593000Y134000D02*
X619000D01*
X593000Y108000D02*
Y134000D01*
Y108000D02*
X618992D01*
Y133992D01*
X624500Y142000D02*
Y168000D01*
Y142000D02*
X650500D01*
Y167992D01*
X624508D02*
X650500D01*
X342500Y97000D02*
X429000D01*
X342500Y230000D02*
X694000D01*
Y97000D02*
Y230000D01*
X429000Y97000D02*
X694000D01*
X342500D02*
Y230000D01*
D19*
X388000Y179500D02*
G03*
X404133Y179500I8066J-6302D01*
G01*
X387934Y179799D02*
X404066D01*
X573138Y186299D02*
G03*
X573138Y186299I-1969J0D01*
G01*
X581268Y130831D02*
G03*
X581268Y130831I-1969J0D01*
G01*
X636669Y117669D02*
G03*
X636669Y117669I-1969J0D01*
G01*
X457283Y130311D02*
Y156689D01*
X442717Y130311D02*
Y156689D01*
Y130311D02*
X457283D01*
X442717Y156689D02*
X457283D01*
X404283Y131811D02*
Y158189D01*
X389717Y131811D02*
Y158189D01*
Y131811D02*
X404283D01*
X389717Y158189D02*
X404283D01*
X431331Y163646D02*
Y169354D01*
X422669Y163646D02*
Y169354D01*
Y163646D02*
X431331D01*
X422669Y169354D02*
X431331D01*
X410646Y174331D02*
X416354D01*
X410646Y165669D02*
X416354D01*
Y174331D01*
X410646Y165669D02*
Y174331D01*
X377646Y167331D02*
X383354D01*
X377646Y158669D02*
X383354D01*
Y167331D01*
X377646Y158669D02*
Y167331D01*
X421646Y139831D02*
X427354D01*
X421646Y131169D02*
X427354D01*
Y139831D01*
X421646Y131169D02*
Y139831D01*
Y156831D02*
X427354D01*
X421646Y148169D02*
X427354D01*
Y156831D01*
X421646Y148169D02*
Y156831D01*
X622146Y124831D02*
X627854D01*
X622146Y116169D02*
X627854D01*
Y124831D01*
X622146Y116169D02*
Y124831D01*
X551669Y105146D02*
Y110854D01*
X560331Y105146D02*
Y110854D01*
X551669D02*
X560331D01*
X551669Y105146D02*
X560331D01*
X569569Y193646D02*
Y199354D01*
X578231Y193646D02*
Y199354D01*
X569569D02*
X578231D01*
X569569Y193646D02*
X578231D01*
X589854Y149169D02*
Y157831D01*
X584146Y149169D02*
Y157831D01*
X589854D01*
X584146Y149169D02*
X589854D01*
X546630Y167846D02*
X550370D01*
X546630Y161154D02*
X550370D01*
Y167846D01*
X546630Y161154D02*
Y167846D01*
X574646Y149169D02*
Y157831D01*
X580354Y149169D02*
Y157831D01*
X574646Y149169D02*
X580354D01*
X574646Y157831D02*
X580354D01*
X577169Y161646D02*
X585831D01*
X577169Y167354D02*
X585831D01*
Y161646D02*
Y167354D01*
X577169Y161646D02*
Y167354D01*
X564646Y149669D02*
Y158331D01*
X570354Y149669D02*
Y158331D01*
X564646Y149669D02*
X570354D01*
X564646Y158331D02*
X570354D01*
X567626Y170157D02*
Y189843D01*
X583374Y170157D02*
Y189843D01*
X567626D02*
X583374D01*
X567626Y170157D02*
X583374D01*
X563157Y134374D02*
X582843D01*
X563157Y118626D02*
X582843D01*
Y134374D01*
X563157Y118626D02*
Y134374D01*
X631157Y114126D02*
X650843D01*
X631157Y129874D02*
X650843D01*
X631157Y114126D02*
Y129874D01*
X650843Y114126D02*
Y129874D01*
X593630Y149654D02*
X597370D01*
X593630Y156346D02*
X597370D01*
X593630Y149654D02*
Y156346D01*
X597370Y149654D02*
Y156346D01*
X562846Y160130D02*
Y163870D01*
X556154Y160130D02*
Y163870D01*
Y160130D02*
X562846D01*
X556154Y163870D02*
X562846D01*
X595654Y162630D02*
Y166370D01*
X602346Y162630D02*
Y166370D01*
X595654D02*
X602346D01*
X595654Y162630D02*
X602346D01*
X603630Y146346D02*
X607370D01*
X603630Y139654D02*
X607370D01*
Y146346D01*
X603630Y139654D02*
Y146346D01*
X616130Y167346D02*
X619870D01*
X616130Y160654D02*
X619870D01*
Y167346D01*
X616130Y160654D02*
Y167346D01*
X585630Y116846D02*
X589370D01*
X585630Y110154D02*
X589370D01*
Y116846D01*
X585630Y110154D02*
Y116846D01*
X603630Y157346D02*
X607370D01*
X603630Y150654D02*
X607370D01*
Y157346D01*
X603630Y150654D02*
Y157346D01*
X622630Y130154D02*
X626370D01*
X622630Y136846D02*
X626370D01*
X622630Y130154D02*
Y136846D01*
X626370Y130154D02*
Y136846D01*
X448031Y143500D02*
X451968D01*
X450000Y141531D02*
Y145469D01*
X395031Y145000D02*
X398968D01*
X397000Y143031D02*
Y146969D01*
X432512Y163350D02*
Y169650D01*
X421488Y163350D02*
Y169650D01*
Y163350D02*
X432512D01*
X421488Y169650D02*
X432512D01*
X425031Y166500D02*
X428968D01*
X427000Y164531D02*
Y168468D01*
X410350Y175512D02*
X416650D01*
X410350Y164488D02*
X416650D01*
Y175512D01*
X410350Y164488D02*
Y175512D01*
X413500Y168031D02*
Y171968D01*
X411532Y170000D02*
X415469D01*
X377350Y168512D02*
X383650D01*
X377350Y157488D02*
X383650D01*
Y168512D01*
X377350Y157488D02*
Y168512D01*
X380500Y161031D02*
Y164968D01*
X378532Y163000D02*
X382469D01*
X421350Y141012D02*
X427650D01*
X421350Y129988D02*
X427650D01*
Y141012D01*
X421350Y129988D02*
Y141012D01*
X424500Y133531D02*
Y137468D01*
X422532Y135500D02*
X426469D01*
X421350Y158012D02*
X427650D01*
X421350Y146988D02*
X427650D01*
Y158012D01*
X421350Y146988D02*
Y158012D01*
X424500Y150531D02*
Y154468D01*
X422532Y152500D02*
X426469D01*
X621850Y126012D02*
X628150D01*
X621850Y114988D02*
X628150D01*
Y126012D01*
X621850Y114988D02*
Y126012D01*
X625000Y118531D02*
Y122468D01*
X623032Y120500D02*
X626969D01*
X550488Y104850D02*
Y111150D01*
X561512Y104850D02*
Y111150D01*
X550488D02*
X561512D01*
X550488Y104850D02*
X561512D01*
X554032Y108000D02*
X557969D01*
X556000Y106032D02*
Y109969D01*
X568388Y193350D02*
Y199650D01*
X579412Y193350D02*
Y199650D01*
X568388D02*
X579412D01*
X568388Y193350D02*
X579412D01*
X571932Y196500D02*
X575869D01*
X573900Y194532D02*
Y198469D01*
X585031Y153500D02*
X588968D01*
X587000Y151532D02*
Y155469D01*
X590150Y147988D02*
Y159012D01*
X583850Y147988D02*
Y159012D01*
X590150D01*
X583850Y147988D02*
X590150D01*
X546335Y169224D02*
X550665D01*
X546335Y159776D02*
X550665D01*
Y169224D01*
X546335Y159776D02*
Y169224D01*
X548500Y162630D02*
Y166370D01*
X546630Y164500D02*
X550370D01*
X575532Y153500D02*
X579469D01*
X577500Y151531D02*
Y155468D01*
X574350Y147988D02*
Y159012D01*
X580650Y147988D02*
Y159012D01*
X574350Y147988D02*
X580650D01*
X574350Y159012D02*
X580650D01*
X581500Y162532D02*
Y166469D01*
X579532Y164500D02*
X583469D01*
X575988Y161350D02*
X587012D01*
X575988Y167650D02*
X587012D01*
Y161350D02*
Y167650D01*
X575988Y161350D02*
Y167650D01*
X565532Y154000D02*
X569469D01*
X567500Y152031D02*
Y155968D01*
X564350Y148488D02*
Y159512D01*
X570650Y148488D02*
Y159512D01*
X564350Y148488D02*
X570650D01*
X564350Y159512D02*
X570650D01*
X573532Y180000D02*
X577469D01*
X575500Y178031D02*
Y181968D01*
X573000Y124531D02*
Y128468D01*
X571032Y126500D02*
X574969D01*
X641000Y120031D02*
Y123968D01*
X639031Y122000D02*
X642968D01*
X593335Y148276D02*
X597665D01*
X593335Y157724D02*
X597665D01*
X593335Y148276D02*
Y157724D01*
X597665Y148276D02*
Y157724D01*
X595500Y151130D02*
Y154870D01*
X593630Y153000D02*
X597370D01*
X564224Y159835D02*
Y164165D01*
X554776Y159835D02*
Y164165D01*
Y159835D02*
X564224D01*
X554776Y164165D02*
X564224D01*
X557630Y162000D02*
X561370D01*
X559500Y160130D02*
Y163870D01*
X594276Y162335D02*
Y166665D01*
X603724Y162335D02*
Y166665D01*
X594276D02*
X603724D01*
X594276Y162335D02*
X603724D01*
X597130Y164500D02*
X600870D01*
X599000Y162630D02*
Y166370D01*
X603335Y147724D02*
X607665D01*
X603335Y138276D02*
X607665D01*
Y147724D01*
X603335Y138276D02*
Y147724D01*
X605500Y141130D02*
Y144870D01*
X603630Y143000D02*
X607370D01*
X615835Y168724D02*
X620165D01*
X615835Y159276D02*
X620165D01*
Y168724D01*
X615835Y159276D02*
Y168724D01*
X618000Y162130D02*
Y165870D01*
X616130Y164000D02*
X619870D01*
X585335Y118224D02*
X589665D01*
X585335Y108776D02*
X589665D01*
Y118224D01*
X585335Y108776D02*
Y118224D01*
X587500Y111630D02*
Y115370D01*
X585630Y113500D02*
X589370D01*
X603335Y158724D02*
X607665D01*
X603335Y149276D02*
X607665D01*
Y158724D01*
X603335Y149276D02*
Y158724D01*
X605500Y152130D02*
Y155870D01*
X603630Y154000D02*
X607370D01*
X622335Y128776D02*
X626665D01*
X622335Y138224D02*
X626665D01*
X622335Y128776D02*
Y138224D01*
X626665Y128776D02*
Y138224D01*
X624500Y131630D02*
Y135370D01*
X622630Y133500D02*
X626370D01*
D20*
X470669Y129327D02*
Y157673D01*
X429331Y129327D02*
Y157673D01*
Y129327D02*
X470669D01*
X429331Y157673D02*
X470669D01*
X417669Y130827D02*
Y159173D01*
X376331Y130827D02*
Y159173D01*
Y130827D02*
X417669D01*
X376331Y159173D02*
X417669D01*
X556602Y169173D02*
Y190827D01*
X594398Y169173D02*
Y190827D01*
X556602D02*
X594398D01*
X556602Y169173D02*
X594398D01*
X562173Y145398D02*
X583827D01*
X562173Y107602D02*
X583827D01*
Y145398D01*
X562173Y107602D02*
Y145398D01*
X630173Y103102D02*
X651827D01*
X630173Y140898D02*
X651827D01*
X630173Y103102D02*
Y140898D01*
X651827Y103102D02*
Y140898D01*
D25*
X463976Y130508D02*
G03*
X463976Y130508I-492J0D01*
G01*
X410976Y132008D02*
G03*
X410976Y132008I-492J0D01*
G01*
X407909Y180327D02*
G03*
X407909Y180327I-492J0D01*
G01*
X563098Y190847D02*
G03*
X563098Y190847I-492J0D01*
G01*
X584339Y139394D02*
G03*
X584339Y139394I-492J0D01*
G01*
X630646Y109106D02*
G03*
X630646Y109106I-492J0D01*
G01*
D26*
X388000Y179500D02*
G03*
X404133Y179500I8066J-6302D01*
G01*
X420000Y197500D02*
X460000D01*
X420000Y192500D02*
Y197500D01*
X460000Y192500D02*
Y197500D01*
X456667D02*
Y210833D01*
X455000Y212500D02*
X456667Y210833D01*
X453333D02*
X455000Y212500D01*
X453333Y197500D02*
Y210833D01*
X446667Y197500D02*
Y210833D01*
X445000Y212500D02*
X446667Y210833D01*
X443333D02*
X445000Y212500D01*
X443333Y197500D02*
Y210833D01*
X436667Y197500D02*
Y210833D01*
X435000Y212500D02*
X436667Y210833D01*
X433333D02*
X435000Y212500D01*
X433333Y197500D02*
Y210833D01*
X426667Y197500D02*
Y210833D01*
X425000Y212500D02*
X426667Y210833D01*
X423333D02*
X425000Y212500D01*
X423333Y197500D02*
Y210833D01*
X420000Y192500D02*
X460000D01*
X378500Y114000D02*
X418500D01*
Y119000D01*
X378500Y114000D02*
Y119000D01*
X381833Y100667D02*
Y114000D01*
Y100667D02*
X383500Y99000D01*
X385167Y100667D01*
Y114000D01*
X391833Y100667D02*
Y114000D01*
Y100667D02*
X393500Y99000D01*
X395167Y100667D01*
Y114000D01*
X401833Y100667D02*
Y114000D01*
Y100667D02*
X403500Y99000D01*
X405167Y100667D01*
Y114000D01*
X411833Y100667D02*
Y114000D01*
Y100667D02*
X413500Y99000D01*
X415167Y100667D01*
Y114000D01*
X378500Y119000D02*
X418500D01*
X377000Y197500D02*
X417000D01*
X377000Y192500D02*
Y197500D01*
X417000Y192500D02*
Y197500D01*
X413667D02*
Y210833D01*
X412000Y212500D02*
X413667Y210833D01*
X410333D02*
X412000Y212500D01*
X410333Y197500D02*
Y210833D01*
X403667Y197500D02*
Y210833D01*
X402000Y212500D02*
X403667Y210833D01*
X400333D02*
X402000Y212500D01*
X400333Y197500D02*
Y210833D01*
X393667Y197500D02*
Y210833D01*
X392000Y212500D02*
X393667Y210833D01*
X390333D02*
X392000Y212500D01*
X390333Y197500D02*
Y210833D01*
X383667Y197500D02*
Y210833D01*
X382000Y212500D02*
X383667Y210833D01*
X380333D02*
X382000Y212500D01*
X380333Y197500D02*
Y210833D01*
X377000Y192500D02*
X417000D01*
X423000Y114000D02*
X463000D01*
Y119000D01*
X423000Y114000D02*
Y119000D01*
X426333Y100667D02*
Y114000D01*
Y100667D02*
X428000Y99000D01*
X429667Y100667D01*
Y114000D01*
X436333Y100667D02*
Y114000D01*
Y100667D02*
X438000Y99000D01*
X439667Y100667D01*
Y114000D01*
X446333Y100667D02*
Y114000D01*
Y100667D02*
X448000Y99000D01*
X449667Y100667D01*
Y114000D01*
X456333Y100667D02*
Y114000D01*
Y100667D02*
X458000Y99000D01*
X459667Y100667D01*
Y114000D01*
X423000Y119000D02*
X463000D01*
X450000Y160500D02*
Y180500D01*
X445000D02*
X450000D01*
X445000Y160500D02*
X450000D01*
X445000D02*
Y180500D01*
X450000Y163833D02*
X463333D01*
X465000Y165500D01*
X463333Y167167D02*
X465000Y165500D01*
X450000Y167167D02*
X463333D01*
X450000Y173833D02*
X463333D01*
X465000Y175500D01*
X463333Y177167D02*
X465000Y175500D01*
X450000Y177167D02*
X463333D01*
X456102Y130311D02*
Y156689D01*
X443898Y130311D02*
Y156689D01*
Y130311D02*
X456102D01*
X443898Y156689D02*
X456102D01*
X403102Y131811D02*
Y158189D01*
X390898Y131811D02*
Y158189D01*
Y131811D02*
X403102D01*
X390898Y158189D02*
X403102D01*
X388000Y179500D02*
X404133D01*
X549878Y163713D02*
Y165287D01*
X547122Y163713D02*
Y165287D01*
X569201Y170157D02*
Y189843D01*
X581799Y170157D02*
Y189843D01*
X569201D02*
X581799D01*
X569201Y170157D02*
X581799D01*
X563157Y132799D02*
X582843D01*
X563157Y120201D02*
X582843D01*
Y132799D01*
X563157Y120201D02*
Y132799D01*
X631157Y115701D02*
X650843D01*
X631157Y128299D02*
X650843D01*
X631157Y115701D02*
Y128299D01*
X650843Y115701D02*
Y128299D01*
X597500Y181000D02*
X637500D01*
X600833Y186000D02*
Y199333D01*
X602500Y201000D01*
X604167Y199333D01*
Y186000D02*
Y199333D01*
X610833Y186000D02*
Y199333D01*
X612500Y201000D01*
X614167Y199333D01*
Y186000D02*
Y199333D01*
X620833Y186000D02*
Y199333D01*
X622500Y201000D01*
X624167Y199333D01*
Y186000D02*
Y199333D01*
X630833Y186000D02*
Y199333D01*
X632500Y201000D01*
X634167Y199333D01*
Y186000D02*
Y199333D01*
X637500Y181000D02*
Y186000D01*
X597500Y181000D02*
Y186000D01*
X637500D01*
X536833Y185000D02*
Y198333D01*
X538500Y200000D01*
X540167Y198333D01*
Y185000D02*
Y198333D01*
X546833Y185000D02*
Y198333D01*
Y198333D02*
X548500Y200000D01*
X550167Y198333D01*
Y185000D02*
Y198333D01*
X533500Y180000D02*
X553500D01*
Y185000D01*
X533500Y180000D02*
Y185000D01*
X553500D01*
X643333Y186000D02*
Y199333D01*
X645000Y201000D01*
X646667Y199333D01*
Y186000D02*
Y199333D01*
X653333Y186000D02*
Y199333D01*
X655000Y201000D01*
X656667Y199333D01*
Y186000D02*
Y199333D01*
X640000Y181000D02*
X660000D01*
Y186000D01*
X640000Y181000D02*
Y186000D01*
X660000D01*
X594122Y152213D02*
Y153787D01*
X596878Y152213D02*
Y153787D01*
X558713Y160622D02*
X560287D01*
X558713Y163378D02*
X560287D01*
X598213Y165878D02*
X599787D01*
X598213Y163122D02*
X599787D01*
X606878Y142213D02*
Y143787D01*
X604122Y142213D02*
Y143787D01*
X619378Y163213D02*
Y164787D01*
X616622Y163213D02*
Y164787D01*
X588878Y112713D02*
Y114287D01*
X586122Y112713D02*
Y114287D01*
X606878Y153213D02*
Y154787D01*
X604122Y153213D02*
Y154787D01*
X623122Y132713D02*
Y134287D01*
X625878Y132713D02*
Y134287D01*
X545500Y114000D02*
Y144000D01*
Y114000D02*
X550500D01*
X545500Y144000D02*
X550500D01*
Y114000D02*
Y144000D01*
X532167Y140667D02*
X545500D01*
X530500Y139000D02*
X532167Y140667D01*
X530500Y139000D02*
X532167Y137333D01*
X545500D01*
X532167Y130667D02*
X545500D01*
X530500Y129000D02*
X532167Y130667D01*
X530500Y129000D02*
X532167Y127333D01*
X545500D01*
X532167Y120667D02*
X545500D01*
X530500Y119000D02*
X532167Y120667D01*
X530500Y119000D02*
X532167Y117333D01*
X545500D01*
D27*
X574319Y185906D02*
G03*
X574319Y185906I-1181J0D01*
G01*
X580087Y128862D02*
G03*
X580087Y128862I-1181J0D01*
G01*
X636276Y119638D02*
G03*
X636276Y119638I-1181J0D01*
G01*
M02*
