G04 Layer_Physical_Order=1*
G04 Layer_Color=255*
%FSLAX25Y25*%
%MOIN*%
G70*
G01*
G75*
%ADD10R,0.12402X0.03543*%
%ADD11R,0.12402X0.12795*%
%ADD12R,0.04331X0.05512*%
%ADD13R,0.05512X0.04331*%
%ADD14R,0.03543X0.02756*%
%ADD15O,0.10039X0.02362*%
%ADD16O,0.02362X0.10039*%
%ADD17R,0.02756X0.03543*%
%ADD18C,0.01000*%
%ADD19C,0.00394*%
%ADD20C,0.00197*%
%ADD21R,0.05906X0.05906*%
%ADD22C,0.05906*%
%ADD23R,0.05906X0.05906*%
%ADD24C,0.06299*%
D10*
X463484Y134445D02*
D03*
Y143500D02*
D03*
Y152555D02*
D03*
X410484Y135945D02*
D03*
Y145000D02*
D03*
Y154055D02*
D03*
D11*
X436516Y143500D02*
D03*
X383516Y145000D02*
D03*
D12*
X429953Y166500D02*
D03*
X424047D02*
D03*
X553047Y108000D02*
D03*
X558953D02*
D03*
X570947Y196500D02*
D03*
X576853D02*
D03*
X584453Y164500D02*
D03*
X578547D02*
D03*
D13*
X413500Y172953D02*
D03*
Y167047D02*
D03*
X380500Y165953D02*
D03*
Y160047D02*
D03*
X424500Y138453D02*
D03*
Y132547D02*
D03*
Y155453D02*
D03*
Y149547D02*
D03*
X625000Y123453D02*
D03*
Y117547D02*
D03*
X587000Y156453D02*
D03*
Y150547D02*
D03*
X577500D02*
D03*
Y156453D02*
D03*
X567500Y151047D02*
D03*
Y156953D02*
D03*
D14*
X548500Y167453D02*
D03*
Y161547D02*
D03*
X595500Y150047D02*
D03*
Y155953D02*
D03*
X605500Y145953D02*
D03*
Y140047D02*
D03*
X618000Y166953D02*
D03*
Y161047D02*
D03*
X587500Y116453D02*
D03*
Y110547D02*
D03*
X605500Y156953D02*
D03*
Y151047D02*
D03*
X624500Y130547D02*
D03*
Y136453D02*
D03*
D15*
X562606Y187500D02*
D03*
Y182500D02*
D03*
Y177500D02*
D03*
Y172500D02*
D03*
X588394Y187500D02*
D03*
Y182500D02*
D03*
Y177500D02*
D03*
Y172500D02*
D03*
D16*
X580500Y139394D02*
D03*
X575500D02*
D03*
X570500D02*
D03*
X565500D02*
D03*
X580500Y113606D02*
D03*
X575500D02*
D03*
X570500D02*
D03*
X565500D02*
D03*
X633500Y109106D02*
D03*
X638500D02*
D03*
X643500D02*
D03*
X648500D02*
D03*
X633500Y134894D02*
D03*
X638500D02*
D03*
X643500D02*
D03*
X648500D02*
D03*
D17*
X562453Y162000D02*
D03*
X556547D02*
D03*
X596047Y164500D02*
D03*
X601953D02*
D03*
D18*
X597700Y200800D02*
X622500Y176000D01*
X573000Y200800D02*
X597700D01*
X570947Y198747D02*
X573000Y200800D01*
X570947Y196500D02*
Y198747D01*
X564344Y107056D02*
X579157D01*
X562800Y108600D02*
Y112400D01*
X554447D02*
X562800D01*
X553047Y111000D02*
X554447Y112400D01*
X553047Y108000D02*
Y111000D01*
X579157Y107056D02*
X580500Y113606D01*
X562800Y108600D02*
X564344Y107056D01*
X549047Y116253D02*
X552900Y112400D01*
X549047Y116253D02*
Y132547D01*
X555500Y139000D01*
X638500Y127986D02*
Y134894D01*
Y127986D02*
X640000Y126486D01*
X647722D01*
X660000Y138763D01*
Y180420D01*
X656420Y184000D02*
X660000Y180420D01*
X640500Y184000D02*
X656420D01*
X632500Y176000D02*
X640500Y184000D01*
X620500Y164000D02*
X632500Y176000D01*
X615600Y164000D02*
X620500D01*
X614681Y163081D02*
X615600Y164000D01*
X614681Y130772D02*
Y163081D01*
Y130772D02*
X622000Y123453D01*
X625000D01*
X559100Y172500D02*
X562606D01*
X552109Y179491D02*
X559100Y172500D01*
X536687Y179491D02*
X552109D01*
X534042Y176846D02*
X536687Y179491D01*
X534042Y167758D02*
Y176846D01*
Y167758D02*
X555300Y146500D01*
X564000D01*
X565500Y145000D01*
Y139394D02*
Y145000D01*
X611547Y166953D02*
X618000D01*
X602500Y176000D02*
X611547Y166953D01*
X565500Y129000D02*
Y139394D01*
X555500Y119000D02*
X565500Y129000D01*
X643500Y109106D02*
Y109200D01*
X648500Y109106D02*
Y109200D01*
Y109100D02*
Y109106D01*
X664000Y124600D02*
Y181000D01*
X656000Y189000D02*
X664000Y181000D01*
X635500Y189000D02*
X656000D01*
X627000Y180500D02*
X635500Y189000D01*
X627000Y174200D02*
Y180500D01*
X624200Y171400D02*
X627000Y174200D01*
X620100Y171400D02*
X624200D01*
X615500Y176000D02*
X620100Y171400D01*
X612500Y176000D02*
X615500D01*
X563626Y120126D02*
X581674D01*
X597900Y173500D02*
X611400Y160000D01*
X588053Y195500D02*
X597900Y185653D01*
X576853Y195500D02*
Y196500D01*
X567500Y151047D02*
X570500D01*
X463484Y152555D02*
Y190616D01*
X457262Y196838D02*
X463484Y190616D01*
X385003Y196838D02*
X457262D01*
X377522Y189358D02*
X385003Y196838D01*
X377522Y185613D02*
Y189358D01*
Y185613D02*
X383936Y179200D01*
X396300D01*
X401000Y174500D01*
X584000Y150547D02*
X587000D01*
X582700Y151847D02*
X584000Y150547D01*
X582700Y151847D02*
Y155000D01*
X581247Y156453D02*
X582700Y155000D01*
X577500Y156453D02*
X581247D01*
X574800D02*
X577500D01*
X568000Y187500D02*
X574800Y180700D01*
X562606Y187500D02*
X568000D01*
X562606Y185006D02*
Y187500D01*
X562600Y185000D02*
X562606Y185006D01*
X562600Y182500D02*
X562606D01*
X593000Y150047D02*
X595500D01*
X591256Y151791D02*
X593000Y150047D01*
X591256Y151791D02*
Y155444D01*
X590247Y156453D02*
X591256Y155444D01*
X587000Y156453D02*
X590247D01*
X578547Y161653D02*
Y164500D01*
Y161653D02*
X580000Y160200D01*
X582300D01*
X586047Y156453D01*
X587000D01*
X574653Y150547D02*
X577500D01*
X572000Y153200D02*
X574653Y150547D01*
X572000Y153200D02*
Y159500D01*
X566227Y165273D02*
X572000Y159500D01*
X557820Y165273D02*
X566227D01*
X556547Y164000D02*
X557820Y165273D01*
X556547Y162000D02*
Y164000D01*
Y161547D02*
Y162000D01*
X584453Y172500D02*
X588394D01*
X584453Y164500D02*
X596047D01*
X568000Y177500D02*
X569131Y176369D01*
Y171369D02*
Y176369D01*
X551800Y164500D02*
X556000Y168700D01*
X546100Y164500D02*
X551800D01*
X545181Y163581D02*
X546100Y164500D01*
X545181Y159581D02*
Y163581D01*
Y159581D02*
X547762Y157000D01*
X559453D01*
X567500Y156953D01*
X562606Y177500D02*
X568000D01*
X566463Y168700D02*
X569131Y171369D01*
X556000Y168700D02*
X566463D01*
X559453Y157000D02*
X562453Y160000D01*
Y162000D01*
X421700Y155453D02*
X424500D01*
X420302Y154055D02*
X421700Y155453D01*
X410484Y154055D02*
X420302D01*
X380500Y165953D02*
X384000D01*
X395898Y154055D01*
X410484D01*
X422200Y149547D02*
X424500D01*
X420239Y147586D02*
X422200Y149547D01*
X420239Y133961D02*
Y147586D01*
Y133961D02*
X421653Y132547D01*
X424500D01*
X601547Y156953D02*
X605500D01*
X599000Y159500D02*
X601547Y156953D01*
X599000Y159500D02*
Y168000D01*
X595450Y171550D02*
X599000Y168000D01*
X595450Y171550D02*
Y181050D01*
X594000Y182500D02*
X595450Y181050D01*
X588394Y182500D02*
X594000D01*
X588300D02*
X588394D01*
X588300Y177500D02*
X588394D01*
X591953Y116453D02*
X596500Y121000D01*
X587500Y116453D02*
X591953D01*
X587500D02*
Y127000D01*
X580500Y134000D02*
X587500Y127000D01*
X580500Y134000D02*
Y139394D01*
X605500Y145953D02*
Y151047D01*
X577000Y145953D02*
X605500D01*
X575500Y144453D02*
X577000Y145953D01*
X575500Y139394D02*
Y144453D01*
X630600Y140000D02*
X636100Y145500D01*
X630600Y133147D02*
Y140000D01*
X628000Y130547D02*
X630600Y133147D01*
X624500Y130547D02*
X628000D01*
X630600Y122100D02*
X638500Y114200D01*
Y109106D02*
Y114200D01*
X636100Y145500D02*
X637500D01*
X621083Y106517D02*
X630600Y116033D01*
X600883Y106517D02*
X621083D01*
X596853Y110547D02*
X600883Y106517D01*
X587500Y110547D02*
X596853D01*
X643500Y134894D02*
Y145200D01*
X655000Y156700D01*
Y176000D01*
X645000D02*
X655000D01*
X645000Y164000D02*
Y176000D01*
X624500Y143500D02*
X645000Y164000D01*
X624500Y136453D02*
Y143500D01*
X548500Y167453D02*
Y175000D01*
X538500D02*
X548500D01*
X605500Y140047D02*
X606500D01*
X621953Y161047D02*
X627500Y155500D01*
X618000Y161047D02*
X621953D01*
X439850Y192650D02*
X445000Y187500D01*
X423797Y192650D02*
X439850D01*
X416500Y185353D02*
X423797Y192650D01*
X402000Y187500D02*
X413500Y172953D01*
X396000Y135945D02*
X410484D01*
X393500Y133445D02*
X396000Y135945D01*
X393500Y124000D02*
Y133445D01*
X424500Y138453D02*
X425947D01*
X430800Y133600D01*
Y126800D02*
Y133600D01*
X428000Y124000D02*
X430800Y126800D01*
X410484Y145000D02*
X418200Y144000D01*
Y130000D02*
Y144000D01*
Y130000D02*
X424200Y124000D01*
X428000D01*
X383516Y124016D02*
Y145000D01*
X383500Y124000D02*
X383516Y124016D01*
X382000Y187500D02*
X388300Y181200D01*
X400947D01*
X408000Y174147D01*
Y169047D02*
Y174147D01*
Y169047D02*
X410000Y167047D01*
X413500D01*
X455745Y134445D02*
X463484D01*
X453300Y132000D02*
X455745Y134445D01*
X453300Y128700D02*
Y132000D01*
Y128700D02*
X458000Y124000D01*
X410744Y164291D02*
X413500Y167047D01*
X398709Y164291D02*
X410744D01*
X396000Y167000D02*
X398709Y164291D01*
X450000Y116000D02*
X458000Y124000D01*
X421500Y116000D02*
X450000D01*
X413500Y124000D02*
X421500Y116000D01*
X380500Y160047D02*
X384151D01*
X391233Y152964D01*
Y137933D02*
Y152964D01*
X389041Y135741D02*
X391233Y137933D01*
X389041Y122141D02*
Y135741D01*
Y122141D02*
X391783Y119400D01*
X408900D01*
X413500Y124000D01*
X392000Y187500D02*
X399300Y194800D01*
X444000D01*
X449493Y189307D01*
X449493Y185607D01*
X446786Y182900D02*
X449493Y185607D01*
X439600Y182900D02*
X446786D01*
X435000Y187500D02*
X439600Y182900D01*
X429953Y182453D02*
X435000Y187500D01*
X429953Y166500D02*
Y182453D01*
Y143500D02*
X436516D01*
X463484D01*
X436516Y135384D02*
X442500Y129400D01*
X439858Y119509D02*
X442500Y122150D01*
X424191Y119509D02*
X439858Y119509D01*
X418100Y125600D02*
X424191Y119509D01*
X415700Y128500D02*
X418100Y125600D01*
X415600Y128600D02*
X415700Y128500D01*
X408100Y128600D02*
X415600D01*
X403500Y124000D02*
X408100Y128600D01*
X575447Y187500D02*
X588394D01*
X570947Y192000D02*
Y196500D01*
X571047Y191900D02*
X575447Y187500D01*
X536000Y191900D02*
X571047D01*
X532000Y187900D02*
X536000Y191900D01*
X532000Y162500D02*
Y187900D01*
Y162500D02*
X555500Y139000D01*
X570500Y127000D02*
Y139394D01*
X551047Y117154D02*
X553689Y114512D01*
X599347Y117547D02*
X625000D01*
X558012Y114512D02*
X563626Y120126D01*
X551047Y124547D02*
X555500Y129000D01*
X553689Y114512D02*
X558012D01*
X583300Y115300D02*
Y118500D01*
X585068Y113532D02*
X595332D01*
X609400Y160000D02*
X611400Y158000D01*
X603953Y160000D02*
X609400D01*
X601953Y162000D02*
X603953Y160000D01*
X601953Y162000D02*
Y164500D01*
X583300Y115300D02*
X585068Y113532D01*
X597900Y181453D02*
X600000Y183553D01*
X604947D01*
X612500Y176000D01*
X551047Y117154D02*
Y124547D01*
X581674Y120126D02*
X583300Y118500D01*
X579987Y104987D02*
X583300Y108300D01*
X560013Y104987D02*
X579987D01*
X558953Y106047D02*
X560013Y104987D01*
X558953Y106047D02*
Y108000D01*
X600547Y155953D02*
X605500Y156953D01*
X595500Y155953D02*
X600547D01*
X424047Y186547D02*
X425000Y187500D01*
X424047Y166500D02*
Y168800D01*
Y186547D01*
X413500Y167047D02*
X422294D01*
X442500Y124000D02*
X448000D01*
X442500D02*
Y129400D01*
X436516Y135384D02*
Y143500D01*
X552900Y112400D02*
X554447D01*
X570947Y192000D02*
X571047Y191900D01*
X563626Y120126D02*
X570500Y127000D01*
Y139394D02*
Y151047D01*
X576853Y195500D02*
X588053D01*
X583300Y108300D02*
Y115300D01*
X643500Y109200D02*
X648500D01*
X599347Y117547D02*
X611400Y129600D01*
X595332Y113532D02*
X599347Y117547D01*
X648500Y109100D02*
X664000Y124600D01*
X611400Y129600D02*
Y158000D01*
Y160000D01*
X597900Y173500D02*
Y181453D01*
Y185653D01*
X562600Y182500D02*
Y185000D01*
X574800Y156453D02*
Y180700D01*
X548500Y161547D02*
X556547D01*
X584453Y164500D02*
Y172500D01*
X588300Y177500D02*
Y182500D01*
X630600Y116033D02*
Y122100D01*
Y133147D01*
X606500Y131000D02*
Y140047D01*
X422294Y167047D02*
X424047Y168800D01*
X429953Y143500D02*
Y166500D01*
X442500Y122150D02*
Y124000D01*
X413500Y172953D02*
X416500D01*
Y185353D01*
X593000Y134000D02*
X619000D01*
X593000Y108000D02*
Y134000D01*
Y108000D02*
X618992D01*
Y133992D01*
X624500Y142000D02*
Y168000D01*
Y142000D02*
X650500D01*
Y167992D01*
X624508D02*
X650500D01*
X342500Y97000D02*
X429000D01*
X342500Y230000D02*
X694000D01*
Y97000D02*
Y230000D01*
X429000Y97000D02*
X694000D01*
X342500D02*
Y230000D01*
D19*
X388000Y179500D02*
G03*
X404133Y179500I8066J-6302D01*
G01*
X387934Y179799D02*
X404066D01*
X573138Y186299D02*
G03*
X573138Y186299I-1969J0D01*
G01*
X581268Y130831D02*
G03*
X581268Y130831I-1969J0D01*
G01*
X636669Y117669D02*
G03*
X636669Y117669I-1969J0D01*
G01*
X457283Y130311D02*
Y156689D01*
X442717Y130311D02*
Y156689D01*
Y130311D02*
X457283D01*
X442717Y156689D02*
X457283D01*
X404283Y131811D02*
Y158189D01*
X389717Y131811D02*
Y158189D01*
Y131811D02*
X404283D01*
X389717Y158189D02*
X404283D01*
X431331Y163646D02*
Y169354D01*
X422669Y163646D02*
Y169354D01*
Y163646D02*
X431331D01*
X422669Y169354D02*
X431331D01*
X410646Y174331D02*
X416354D01*
X410646Y165669D02*
X416354D01*
Y174331D01*
X410646Y165669D02*
Y174331D01*
X377646Y167331D02*
X383354D01*
X377646Y158669D02*
X383354D01*
Y167331D01*
X377646Y158669D02*
Y167331D01*
X421646Y139831D02*
X427354D01*
X421646Y131169D02*
X427354D01*
Y139831D01*
X421646Y131169D02*
Y139831D01*
Y156831D02*
X427354D01*
X421646Y148169D02*
X427354D01*
Y156831D01*
X421646Y148169D02*
Y156831D01*
X622146Y124831D02*
X627854D01*
X622146Y116169D02*
X627854D01*
Y124831D01*
X622146Y116169D02*
Y124831D01*
X551669Y105146D02*
Y110854D01*
X560331Y105146D02*
Y110854D01*
X551669D02*
X560331D01*
X551669Y105146D02*
X560331D01*
X569569Y193646D02*
Y199354D01*
X578231Y193646D02*
Y199354D01*
X569569D02*
X578231D01*
X569569Y193646D02*
X578231D01*
X589854Y149169D02*
Y157831D01*
X584146Y149169D02*
Y157831D01*
X589854D01*
X584146Y149169D02*
X589854D01*
X546630Y167846D02*
X550370D01*
X546630Y161154D02*
X550370D01*
Y167846D01*
X546630Y161154D02*
Y167846D01*
X574646Y149169D02*
Y157831D01*
X580354Y149169D02*
Y157831D01*
X574646Y149169D02*
X580354D01*
X574646Y157831D02*
X580354D01*
X577169Y161646D02*
X585831D01*
X577169Y167354D02*
X585831D01*
Y161646D02*
Y167354D01*
X577169Y161646D02*
Y167354D01*
X564646Y149669D02*
Y158331D01*
X570354Y149669D02*
Y158331D01*
X564646Y149669D02*
X570354D01*
X564646Y158331D02*
X570354D01*
X567626Y170157D02*
Y189843D01*
X583374Y170157D02*
Y189843D01*
X567626D02*
X583374D01*
X567626Y170157D02*
X583374D01*
X563157Y134374D02*
X582843D01*
X563157Y118626D02*
X582843D01*
Y134374D01*
X563157Y118626D02*
Y134374D01*
X631157Y114126D02*
X650843D01*
X631157Y129874D02*
X650843D01*
X631157Y114126D02*
Y129874D01*
X650843Y114126D02*
Y129874D01*
X593630Y149654D02*
X597370D01*
X593630Y156346D02*
X597370D01*
X593630Y149654D02*
Y156346D01*
X597370Y149654D02*
Y156346D01*
X562846Y160130D02*
Y163870D01*
X556154Y160130D02*
Y163870D01*
Y160130D02*
X562846D01*
X556154Y163870D02*
X562846D01*
X595654Y162630D02*
Y166370D01*
X602346Y162630D02*
Y166370D01*
X595654D02*
X602346D01*
X595654Y162630D02*
X602346D01*
X603630Y146346D02*
X607370D01*
X603630Y139654D02*
X607370D01*
Y146346D01*
X603630Y139654D02*
Y146346D01*
X616130Y167346D02*
X619870D01*
X616130Y160654D02*
X619870D01*
Y167346D01*
X616130Y160654D02*
Y167346D01*
X585630Y116846D02*
X589370D01*
X585630Y110154D02*
X589370D01*
Y116846D01*
X585630Y110154D02*
Y116846D01*
X603630Y157346D02*
X607370D01*
X603630Y150654D02*
X607370D01*
Y157346D01*
X603630Y150654D02*
Y157346D01*
X622630Y130154D02*
X626370D01*
X622630Y136846D02*
X626370D01*
X622630Y130154D02*
Y136846D01*
X626370Y130154D02*
Y136846D01*
X448031Y143500D02*
X451968D01*
X450000Y141531D02*
Y145469D01*
X395031Y145000D02*
X398968D01*
X397000Y143031D02*
Y146969D01*
X432512Y163350D02*
Y169650D01*
X421488Y163350D02*
Y169650D01*
Y163350D02*
X432512D01*
X421488Y169650D02*
X432512D01*
X425031Y166500D02*
X428968D01*
X427000Y164531D02*
Y168468D01*
X410350Y175512D02*
X416650D01*
X410350Y164488D02*
X416650D01*
Y175512D01*
X410350Y164488D02*
Y175512D01*
X413500Y168031D02*
Y171968D01*
X411532Y170000D02*
X415469D01*
X377350Y168512D02*
X383650D01*
X377350Y157488D02*
X383650D01*
Y168512D01*
X377350Y157488D02*
Y168512D01*
X380500Y161031D02*
Y164968D01*
X378532Y163000D02*
X382469D01*
X421350Y141012D02*
X427650D01*
X421350Y129988D02*
X427650D01*
Y141012D01*
X421350Y129988D02*
Y141012D01*
X424500Y133531D02*
Y137468D01*
X422532Y135500D02*
X426469D01*
X421350Y158012D02*
X427650D01*
X421350Y146988D02*
X427650D01*
Y158012D01*
X421350Y146988D02*
Y158012D01*
X424500Y150531D02*
Y154468D01*
X422532Y152500D02*
X426469D01*
X621850Y126012D02*
X628150D01*
X621850Y114988D02*
X628150D01*
Y126012D01*
X621850Y114988D02*
Y126012D01*
X625000Y118531D02*
Y122468D01*
X623032Y120500D02*
X626969D01*
X550488Y104850D02*
Y111150D01*
X561512Y104850D02*
Y111150D01*
X550488D02*
X561512D01*
X550488Y104850D02*
X561512D01*
X554032Y108000D02*
X557969D01*
X556000Y106032D02*
Y109969D01*
X568388Y193350D02*
Y199650D01*
X579412Y193350D02*
Y199650D01*
X568388D02*
X579412D01*
X568388Y193350D02*
X579412D01*
X571932Y196500D02*
X575869D01*
X573900Y194532D02*
Y198469D01*
X585031Y153500D02*
X588968D01*
X587000Y151532D02*
Y155469D01*
X590150Y147988D02*
Y159012D01*
X583850Y147988D02*
Y159012D01*
X590150D01*
X583850Y147988D02*
X590150D01*
X546335Y169224D02*
X550665D01*
X546335Y159776D02*
X550665D01*
Y169224D01*
X546335Y159776D02*
Y169224D01*
X548500Y162630D02*
Y166370D01*
X546630Y164500D02*
X550370D01*
X575532Y153500D02*
X579469D01*
X577500Y151531D02*
Y155468D01*
X574350Y147988D02*
Y159012D01*
X580650Y147988D02*
Y159012D01*
X574350Y147988D02*
X580650D01*
X574350Y159012D02*
X580650D01*
X581500Y162532D02*
Y166469D01*
X579532Y164500D02*
X583469D01*
X575988Y161350D02*
X587012D01*
X575988Y167650D02*
X587012D01*
Y161350D02*
Y167650D01*
X575988Y161350D02*
Y167650D01*
X565532Y154000D02*
X569469D01*
X567500Y152031D02*
Y155968D01*
X564350Y148488D02*
Y159512D01*
X570650Y148488D02*
Y159512D01*
X564350Y148488D02*
X570650D01*
X564350Y159512D02*
X570650D01*
X573532Y180000D02*
X577469D01*
X575500Y178031D02*
Y181968D01*
X573000Y124531D02*
Y128468D01*
X571032Y126500D02*
X574969D01*
X641000Y120031D02*
Y123968D01*
X639031Y122000D02*
X642968D01*
X593335Y148276D02*
X597665D01*
X593335Y157724D02*
X597665D01*
X593335Y148276D02*
Y157724D01*
X597665Y148276D02*
Y157724D01*
X595500Y151130D02*
Y154870D01*
X593630Y153000D02*
X597370D01*
X564224Y159835D02*
Y164165D01*
X554776Y159835D02*
Y164165D01*
Y159835D02*
X564224D01*
X554776Y164165D02*
X564224D01*
X557630Y162000D02*
X561370D01*
X559500Y160130D02*
Y163870D01*
X594276Y162335D02*
Y166665D01*
X603724Y162335D02*
Y166665D01*
X594276D02*
X603724D01*
X594276Y162335D02*
X603724D01*
X597130Y164500D02*
X600870D01*
X599000Y162630D02*
Y166370D01*
X603335Y147724D02*
X607665D01*
X603335Y138276D02*
X607665D01*
Y147724D01*
X603335Y138276D02*
Y147724D01*
X605500Y141130D02*
Y144870D01*
X603630Y143000D02*
X607370D01*
X615835Y168724D02*
X620165D01*
X615835Y159276D02*
X620165D01*
Y168724D01*
X615835Y159276D02*
Y168724D01*
X618000Y162130D02*
Y165870D01*
X616130Y164000D02*
X619870D01*
X585335Y118224D02*
X589665D01*
X585335Y108776D02*
X589665D01*
Y118224D01*
X585335Y108776D02*
Y118224D01*
X587500Y111630D02*
Y115370D01*
X585630Y113500D02*
X589370D01*
X603335Y158724D02*
X607665D01*
X603335Y149276D02*
X607665D01*
Y158724D01*
X603335Y149276D02*
Y158724D01*
X605500Y152130D02*
Y155870D01*
X603630Y154000D02*
X607370D01*
X622335Y128776D02*
X626665D01*
X622335Y138224D02*
X626665D01*
X622335Y128776D02*
Y138224D01*
X626665Y128776D02*
Y138224D01*
X624500Y131630D02*
Y135370D01*
X622630Y133500D02*
X626370D01*
D20*
X470669Y129327D02*
Y157673D01*
X429331Y129327D02*
Y157673D01*
Y129327D02*
X470669D01*
X429331Y157673D02*
X470669D01*
X417669Y130827D02*
Y159173D01*
X376331Y130827D02*
Y159173D01*
Y130827D02*
X417669D01*
X376331Y159173D02*
X417669D01*
X556602Y169173D02*
Y190827D01*
X594398Y169173D02*
Y190827D01*
X556602D02*
X594398D01*
X556602Y169173D02*
X594398D01*
X562173Y145398D02*
X583827D01*
X562173Y107602D02*
X583827D01*
Y145398D01*
X562173Y107602D02*
Y145398D01*
X630173Y103102D02*
X651827D01*
X630173Y140898D02*
X651827D01*
X630173Y103102D02*
Y140898D01*
X651827Y103102D02*
Y140898D01*
D21*
X455000Y187500D02*
D03*
X383500Y124000D02*
D03*
X412000Y187500D02*
D03*
X428000Y124000D02*
D03*
X632500Y176000D02*
D03*
X548500Y175000D02*
D03*
X655000Y176000D02*
D03*
D22*
X445000Y187500D02*
D03*
X435000D02*
D03*
X425000D02*
D03*
X393500Y124000D02*
D03*
X403500D02*
D03*
X413500D02*
D03*
X402000Y187500D02*
D03*
X392000D02*
D03*
X382000D02*
D03*
X438000Y124000D02*
D03*
X448000D02*
D03*
X458000D02*
D03*
X440000Y175500D02*
D03*
X602500Y176000D02*
D03*
X612500D02*
D03*
X622500D02*
D03*
X538500Y175000D02*
D03*
X645000Y176000D02*
D03*
X606500Y111000D02*
D03*
X596500Y121000D02*
D03*
X606500Y131000D02*
D03*
X647500Y155500D02*
D03*
X637500Y145500D02*
D03*
X627500Y155500D02*
D03*
X555500Y129000D02*
D03*
Y119000D02*
D03*
D23*
X440000Y165500D02*
D03*
X555500Y139000D02*
D03*
D24*
X401000Y174500D02*
D03*
X396000Y167000D02*
D03*
X391000Y174500D02*
D03*
M02*
