G04 Layer_Physical_Order=2*
G04 Layer_Color=16711680*
%FSLAX25Y25*%
%MOIN*%
G70*
G01*
G75*
%ADD18C,0.01000*%
%ADD19C,0.00394*%
%ADD20C,0.00197*%
%ADD21R,0.05906X0.05906*%
%ADD22C,0.05906*%
%ADD23R,0.05906X0.05906*%
%ADD24C,0.06299*%
G36*
X665471Y103529D02*
X531529D01*
Y201471D01*
X665471D01*
Y103529D01*
D02*
G37*
G36*
X470971Y101529D02*
X376529D01*
Y210971D01*
X470971D01*
Y101529D01*
D02*
G37*
%LPC*%
G36*
X613000Y179921D02*
Y176500D01*
X616421D01*
X616351Y177032D01*
X615953Y177993D01*
X615319Y178819D01*
X614493Y179453D01*
X613532Y179851D01*
X613000Y179921D01*
D02*
G37*
G36*
X612000D02*
X611468Y179851D01*
X610507Y179453D01*
X609681Y178819D01*
X609047Y177993D01*
X608649Y177032D01*
X608579Y176500D01*
X612000D01*
Y179921D01*
D02*
G37*
G36*
X616421Y175500D02*
X613000D01*
Y172079D01*
X613532Y172149D01*
X614493Y172547D01*
X615319Y173181D01*
X615953Y174007D01*
X616351Y174968D01*
X616421Y175500D01*
D02*
G37*
G36*
X612000D02*
X608579D01*
X608649Y174968D01*
X609047Y174007D01*
X609681Y173181D01*
X610507Y172547D01*
X611468Y172149D01*
X612000Y172079D01*
Y175500D01*
D02*
G37*
G36*
X658953Y179953D02*
X651047D01*
Y172047D01*
X658953D01*
Y179953D01*
D02*
G37*
G36*
X636453D02*
X628547D01*
Y172047D01*
X636453D01*
Y179953D01*
D02*
G37*
G36*
X645000Y179987D02*
X643968Y179851D01*
X643007Y179453D01*
X642181Y178819D01*
X641547Y177993D01*
X641149Y177032D01*
X641013Y176000D01*
X641149Y174968D01*
X641547Y174007D01*
X642181Y173181D01*
X643007Y172547D01*
X643968Y172149D01*
X645000Y172013D01*
X646032Y172149D01*
X646993Y172547D01*
X647819Y173181D01*
X648453Y174007D01*
X648851Y174968D01*
X648987Y176000D01*
X648851Y177032D01*
X648453Y177993D01*
X647819Y178819D01*
X646993Y179453D01*
X646032Y179851D01*
X645000Y179987D01*
D02*
G37*
G36*
X622500D02*
X621468Y179851D01*
X620507Y179453D01*
X619681Y178819D01*
X619047Y177993D01*
X618649Y177032D01*
X618513Y176000D01*
X618649Y174968D01*
X619047Y174007D01*
X619681Y173181D01*
X620507Y172547D01*
X621468Y172149D01*
X622500Y172013D01*
X623532Y172149D01*
X624493Y172547D01*
X625319Y173181D01*
X625953Y174007D01*
X626351Y174968D01*
X626487Y176000D01*
X626351Y177032D01*
X625953Y177993D01*
X625319Y178819D01*
X624493Y179453D01*
X623532Y179851D01*
X622500Y179987D01*
D02*
G37*
G36*
X552453Y178953D02*
X544547D01*
Y171047D01*
X552453D01*
Y178953D01*
D02*
G37*
G36*
X538500Y178987D02*
X537468Y178851D01*
X536507Y178453D01*
X535681Y177819D01*
X535047Y176993D01*
X534649Y176032D01*
X534513Y175000D01*
X534649Y173968D01*
X535047Y173007D01*
X535681Y172181D01*
X536507Y171547D01*
X537468Y171149D01*
X538500Y171013D01*
X539532Y171149D01*
X540493Y171547D01*
X541319Y172181D01*
X541953Y173007D01*
X542351Y173968D01*
X542487Y175000D01*
X542351Y176032D01*
X541953Y176993D01*
X541319Y177819D01*
X540493Y178453D01*
X539532Y178851D01*
X538500Y178987D01*
D02*
G37*
G36*
X647500Y159487D02*
X646468Y159351D01*
X645507Y158953D01*
X644681Y158319D01*
X644047Y157493D01*
X643649Y156532D01*
X643513Y155500D01*
X643649Y154468D01*
X644047Y153507D01*
X644681Y152681D01*
X645507Y152047D01*
X646468Y151649D01*
X647500Y151513D01*
X648532Y151649D01*
X649493Y152047D01*
X650319Y152681D01*
X650953Y153507D01*
X651351Y154468D01*
X651487Y155500D01*
X651351Y156532D01*
X650953Y157493D01*
X650319Y158319D01*
X649493Y158953D01*
X648532Y159351D01*
X647500Y159487D01*
D02*
G37*
G36*
X627500D02*
X626468Y159351D01*
X625507Y158953D01*
X624681Y158319D01*
X624047Y157493D01*
X623649Y156532D01*
X623513Y155500D01*
X623649Y154468D01*
X624047Y153507D01*
X624681Y152681D01*
X625507Y152047D01*
X626468Y151649D01*
X627500Y151513D01*
X628532Y151649D01*
X629493Y152047D01*
X630319Y152681D01*
X630953Y153507D01*
X631351Y154468D01*
X631487Y155500D01*
X631351Y156532D01*
X630953Y157493D01*
X630319Y158319D01*
X629493Y158953D01*
X628532Y159351D01*
X627500Y159487D01*
D02*
G37*
G36*
X637500Y149487D02*
X636468Y149351D01*
X635507Y148953D01*
X634681Y148319D01*
X634047Y147493D01*
X633649Y146532D01*
X633513Y145500D01*
X633649Y144468D01*
X634047Y143507D01*
X634681Y142681D01*
X635507Y142047D01*
X636468Y141649D01*
X637500Y141513D01*
X638532Y141649D01*
X639493Y142047D01*
X640319Y142681D01*
X640953Y143507D01*
X641351Y144468D01*
X641487Y145500D01*
X641351Y146532D01*
X640953Y147493D01*
X640319Y148319D01*
X639493Y148953D01*
X638532Y149351D01*
X637500Y149487D01*
D02*
G37*
G36*
X559453Y142953D02*
X551547D01*
Y135047D01*
X559453D01*
Y142953D01*
D02*
G37*
G36*
X556000Y132921D02*
Y129500D01*
X559421D01*
X559351Y130032D01*
X558953Y130993D01*
X558319Y131819D01*
X557493Y132453D01*
X556532Y132851D01*
X556000Y132921D01*
D02*
G37*
G36*
X555000D02*
X554468Y132851D01*
X553507Y132453D01*
X552681Y131819D01*
X552047Y130993D01*
X551649Y130032D01*
X551579Y129500D01*
X555000D01*
Y132921D01*
D02*
G37*
G36*
X606500Y134987D02*
X605468Y134851D01*
X604507Y134453D01*
X603681Y133819D01*
X603047Y132993D01*
X602649Y132032D01*
X602513Y131000D01*
X602649Y129968D01*
X603047Y129007D01*
X603681Y128181D01*
X604507Y127547D01*
X605468Y127149D01*
X606500Y127013D01*
X607532Y127149D01*
X608493Y127547D01*
X609319Y128181D01*
X609953Y129007D01*
X610351Y129968D01*
X610487Y131000D01*
X610351Y132032D01*
X609953Y132993D01*
X609319Y133819D01*
X608493Y134453D01*
X607532Y134851D01*
X606500Y134987D01*
D02*
G37*
G36*
X559421Y128500D02*
X556000D01*
Y125079D01*
X556532Y125149D01*
X557493Y125547D01*
X558319Y126181D01*
X558953Y127007D01*
X559351Y127968D01*
X559421Y128500D01*
D02*
G37*
G36*
X555000D02*
X551579D01*
X551649Y127968D01*
X552047Y127007D01*
X552681Y126181D01*
X553507Y125547D01*
X554468Y125149D01*
X555000Y125079D01*
Y128500D01*
D02*
G37*
G36*
X602500Y179987D02*
X601468Y179851D01*
X600507Y179453D01*
X599681Y178819D01*
X599047Y177993D01*
X598649Y177032D01*
X598513Y176000D01*
X598649Y174968D01*
X599047Y174007D01*
X599681Y173181D01*
X600507Y172547D01*
X600971Y172355D01*
Y166633D01*
X556996Y122659D01*
X556532Y122851D01*
X555500Y122987D01*
X554468Y122851D01*
X553507Y122453D01*
X552681Y121819D01*
X552047Y120993D01*
X551649Y120032D01*
X551513Y119000D01*
X551649Y117968D01*
X552047Y117007D01*
X552681Y116181D01*
X553507Y115547D01*
X554468Y115149D01*
X555500Y115013D01*
X556532Y115149D01*
X557493Y115547D01*
X558319Y116181D01*
X558953Y117007D01*
X559351Y117968D01*
X559487Y119000D01*
X559351Y120032D01*
X559159Y120496D01*
X603581Y164919D01*
X603913Y165415D01*
X604029Y166000D01*
Y172355D01*
X604493Y172547D01*
X605319Y173181D01*
X605953Y174007D01*
X606351Y174968D01*
X606487Y176000D01*
X606351Y177032D01*
X605953Y177993D01*
X605319Y178819D01*
X604493Y179453D01*
X603532Y179851D01*
X602500Y179987D01*
D02*
G37*
G36*
X596500Y124987D02*
X595468Y124851D01*
X594507Y124453D01*
X593681Y123819D01*
X593047Y122993D01*
X592649Y122032D01*
X592513Y121000D01*
X592649Y119968D01*
X593047Y119007D01*
X593681Y118181D01*
X594507Y117547D01*
X595468Y117149D01*
X596500Y117013D01*
X597532Y117149D01*
X598493Y117547D01*
X599319Y118181D01*
X599953Y119007D01*
X600351Y119968D01*
X600487Y121000D01*
X600351Y122032D01*
X599953Y122993D01*
X599319Y123819D01*
X598493Y124453D01*
X597532Y124851D01*
X596500Y124987D01*
D02*
G37*
G36*
X606500Y114987D02*
X605468Y114851D01*
X604507Y114453D01*
X603681Y113819D01*
X603047Y112993D01*
X602649Y112032D01*
X602513Y111000D01*
X602649Y109968D01*
X603047Y109007D01*
X603681Y108181D01*
X604507Y107547D01*
X605468Y107149D01*
X606500Y107013D01*
X607532Y107149D01*
X608493Y107547D01*
X609319Y108181D01*
X609953Y109007D01*
X610351Y109968D01*
X610487Y111000D01*
X610351Y112032D01*
X609953Y112993D01*
X609319Y113819D01*
X608493Y114453D01*
X607532Y114851D01*
X606500Y114987D01*
D02*
G37*
G36*
X455100Y197929D02*
X453900D01*
X453315Y197813D01*
X452819Y197481D01*
X446496Y191159D01*
X446032Y191351D01*
X445000Y191487D01*
X443968Y191351D01*
X443007Y190953D01*
X442181Y190319D01*
X441547Y189493D01*
X441149Y188532D01*
X441013Y187500D01*
X441149Y186468D01*
X441547Y185507D01*
X441913Y185029D01*
X441667Y184529D01*
X438333D01*
X438087Y185029D01*
X438453Y185507D01*
X438851Y186468D01*
X438921Y187000D01*
X435000D01*
X431079D01*
X431149Y186468D01*
X431547Y185507D01*
X431913Y185029D01*
X431667Y184529D01*
X428333D01*
X428087Y185029D01*
X428453Y185507D01*
X428851Y186468D01*
X428987Y187500D01*
X428851Y188532D01*
X428453Y189493D01*
X427819Y190319D01*
X426993Y190953D01*
X426529Y191145D01*
Y192000D01*
X426413Y192585D01*
X426081Y193081D01*
X421681Y197481D01*
X421185Y197813D01*
X420600Y197929D01*
X411900D01*
X411315Y197813D01*
X410819Y197481D01*
X406419Y193081D01*
X406087Y192585D01*
X405971Y192000D01*
Y189550D01*
X405471Y189450D01*
X405453Y189493D01*
X404819Y190319D01*
X403993Y190953D01*
X403032Y191351D01*
X402000Y191487D01*
X400968Y191351D01*
X400504Y191159D01*
X397381Y194281D01*
X396885Y194613D01*
X396300Y194729D01*
X389700D01*
X389115Y194613D01*
X388619Y194281D01*
X385419Y191081D01*
X385147Y190675D01*
X384746Y190540D01*
X384563Y190515D01*
X383993Y190953D01*
X383032Y191351D01*
X382000Y191487D01*
X380968Y191351D01*
X380007Y190953D01*
X379181Y190319D01*
X378547Y189493D01*
X378149Y188532D01*
X378013Y187500D01*
X378149Y186468D01*
X378547Y185507D01*
X379181Y184681D01*
X380007Y184047D01*
X380968Y183649D01*
X382000Y183513D01*
X383032Y183649D01*
X383993Y184047D01*
X384471Y184413D01*
X384971Y184167D01*
Y180310D01*
X384887Y180185D01*
X384771Y179600D01*
Y131200D01*
X384887Y130615D01*
X385219Y130119D01*
X386922Y128415D01*
X386731Y127953D01*
X379547D01*
Y120047D01*
X385290D01*
X388819Y116519D01*
X389315Y116187D01*
X389900Y116071D01*
X421600D01*
X422185Y116187D01*
X422681Y116519D01*
X426210Y120047D01*
X431953D01*
Y125790D01*
X449881Y143719D01*
X450213Y144215D01*
X450329Y144800D01*
Y180666D01*
X453210Y183547D01*
X457971D01*
Y146133D01*
X439496Y127659D01*
X439032Y127851D01*
X438000Y127987D01*
X436968Y127851D01*
X436007Y127453D01*
X435181Y126819D01*
X434547Y125993D01*
X434149Y125032D01*
X434013Y124000D01*
X434149Y122968D01*
X434547Y122007D01*
X435181Y121181D01*
X436007Y120547D01*
X436968Y120149D01*
X438000Y120013D01*
X439032Y120149D01*
X439993Y120547D01*
X440819Y121181D01*
X441453Y122007D01*
X441851Y122968D01*
X441987Y124000D01*
X441851Y125032D01*
X441659Y125496D01*
X460581Y144419D01*
X460913Y144915D01*
X461029Y145500D01*
Y192000D01*
X460913Y192585D01*
X460581Y193081D01*
X456181Y197481D01*
X455685Y197813D01*
X455100Y197929D01*
D02*
G37*
G36*
X435500Y191421D02*
Y188000D01*
X438921D01*
X438851Y188532D01*
X438453Y189493D01*
X437819Y190319D01*
X436993Y190953D01*
X436032Y191351D01*
X435500Y191421D01*
D02*
G37*
G36*
X434500D02*
X433968Y191351D01*
X433007Y190953D01*
X432181Y190319D01*
X431547Y189493D01*
X431149Y188532D01*
X431079Y188000D01*
X434500D01*
Y191421D01*
D02*
G37*
G36*
X448500Y127921D02*
Y124500D01*
X451921D01*
X451851Y125032D01*
X451453Y125993D01*
X450819Y126819D01*
X449993Y127453D01*
X449032Y127851D01*
X448500Y127921D01*
D02*
G37*
G36*
X447500D02*
X446968Y127851D01*
X446007Y127453D01*
X445181Y126819D01*
X444547Y125993D01*
X444149Y125032D01*
X444079Y124500D01*
X447500D01*
Y127921D01*
D02*
G37*
G36*
X451921Y123500D02*
X448500D01*
Y120079D01*
X449032Y120149D01*
X449993Y120547D01*
X450819Y121181D01*
X451453Y122007D01*
X451851Y122968D01*
X451921Y123500D01*
D02*
G37*
G36*
X447500D02*
X444079D01*
X444149Y122968D01*
X444547Y122007D01*
X445181Y121181D01*
X446007Y120547D01*
X446968Y120149D01*
X447500Y120079D01*
Y123500D01*
D02*
G37*
G36*
X458000Y127987D02*
X456968Y127851D01*
X456007Y127453D01*
X455181Y126819D01*
X454547Y125993D01*
X454149Y125032D01*
X454013Y124000D01*
X454149Y122968D01*
X454547Y122007D01*
X455181Y121181D01*
X456007Y120547D01*
X456968Y120149D01*
X458000Y120013D01*
X459032Y120149D01*
X459993Y120547D01*
X460819Y121181D01*
X461453Y122007D01*
X461851Y122968D01*
X461987Y124000D01*
X461851Y125032D01*
X461453Y125993D01*
X460819Y126819D01*
X459993Y127453D01*
X459032Y127851D01*
X458000Y127987D01*
D02*
G37*
%LPD*%
G36*
X423245Y191593D02*
X423135Y191006D01*
X423007Y190953D01*
X422181Y190319D01*
X421547Y189493D01*
X421149Y188532D01*
X421013Y187500D01*
X421149Y186468D01*
X421547Y185507D01*
X421913Y185029D01*
X421667Y184529D01*
X417134D01*
X415953Y185710D01*
Y191453D01*
X409769D01*
X409578Y191915D01*
X412534Y194871D01*
X419967D01*
X423245Y191593D01*
D02*
G37*
G36*
X398341Y188996D02*
X398149Y188532D01*
X398013Y187500D01*
X398149Y186468D01*
X398547Y185507D01*
X399181Y184681D01*
X400007Y184047D01*
X400968Y183649D01*
X402000Y183513D01*
X403032Y183649D01*
X403993Y184047D01*
X404819Y184681D01*
X405453Y185507D01*
X405471Y185550D01*
X405971Y185450D01*
Y183047D01*
X405987Y182963D01*
X405670Y182577D01*
X397547D01*
X396962Y182460D01*
X396466Y182129D01*
X392647Y178310D01*
X392083Y178543D01*
X391000Y178685D01*
X389917Y178543D01*
X388907Y178125D01*
X388329Y177681D01*
X387829Y177928D01*
Y179090D01*
X387913Y179215D01*
X388029Y179800D01*
Y185450D01*
X388529Y185550D01*
X388547Y185507D01*
X389181Y184681D01*
X390007Y184047D01*
X390968Y183649D01*
X391500Y183579D01*
Y187500D01*
X392000D01*
Y188000D01*
X395921D01*
X395851Y188532D01*
X395453Y189493D01*
X394819Y190319D01*
X393993Y190953D01*
X393467Y191171D01*
X393567Y191671D01*
X395667D01*
X398341Y188996D01*
D02*
G37*
G36*
X415419Y181919D02*
X415915Y181587D01*
X416500Y181471D01*
X447131D01*
X447271Y181300D01*
Y145433D01*
X429790Y127953D01*
X424047D01*
Y122210D01*
X420966Y119129D01*
X390533D01*
X387453Y122210D01*
Y127231D01*
X387915Y127422D01*
X389841Y125496D01*
X389649Y125032D01*
X389513Y124000D01*
X389649Y122968D01*
X390047Y122007D01*
X390681Y121181D01*
X391507Y120547D01*
X392468Y120149D01*
X393500Y120013D01*
X394532Y120149D01*
X395493Y120547D01*
X396319Y121181D01*
X396953Y122007D01*
X397351Y122968D01*
X397487Y124000D01*
X397351Y125032D01*
X396953Y125993D01*
X396319Y126819D01*
X395493Y127453D01*
X394532Y127851D01*
X393500Y127987D01*
X392468Y127851D01*
X392004Y127659D01*
X387829Y131834D01*
Y171072D01*
X388329Y171319D01*
X388907Y170875D01*
X389917Y170457D01*
X391000Y170315D01*
X392083Y170457D01*
X393093Y170875D01*
X393959Y171540D01*
X394625Y172407D01*
X395043Y173417D01*
X395185Y174500D01*
X395043Y175583D01*
X394810Y176147D01*
X398181Y179518D01*
X409319D01*
X424419Y164419D01*
X424915Y164087D01*
X425500Y163971D01*
X436047D01*
Y161547D01*
X443953D01*
Y169453D01*
X436047D01*
Y167029D01*
X426133D01*
X419654Y173509D01*
X419846Y173971D01*
X436355D01*
X436547Y173507D01*
X437181Y172681D01*
X438007Y172047D01*
X438968Y171649D01*
X440000Y171513D01*
X441032Y171649D01*
X441993Y172047D01*
X442819Y172681D01*
X443453Y173507D01*
X443851Y174468D01*
X443987Y175500D01*
X443851Y176532D01*
X443453Y177493D01*
X442819Y178319D01*
X441993Y178953D01*
X441032Y179351D01*
X440000Y179487D01*
X438968Y179351D01*
X438007Y178953D01*
X437181Y178319D01*
X436547Y177493D01*
X436355Y177029D01*
X419334D01*
X413518Y182845D01*
X413696Y183374D01*
X413931Y183406D01*
X415419Y181919D01*
D02*
G37*
%LPC*%
G36*
X395921Y187000D02*
X392500D01*
Y183579D01*
X393032Y183649D01*
X393993Y184047D01*
X394819Y184681D01*
X395453Y185507D01*
X395851Y186468D01*
X395921Y187000D01*
D02*
G37*
G36*
X401000Y178685D02*
X399917Y178543D01*
X398907Y178125D01*
X398041Y177460D01*
X397375Y176593D01*
X396957Y175583D01*
X396815Y174500D01*
X396957Y173417D01*
X397375Y172407D01*
X398041Y171540D01*
X398907Y170875D01*
X399917Y170457D01*
X401000Y170315D01*
X402083Y170457D01*
X403093Y170875D01*
X403960Y171540D01*
X404625Y172407D01*
X405043Y173417D01*
X405185Y174500D01*
X405043Y175583D01*
X404625Y176593D01*
X403960Y177460D01*
X403093Y178125D01*
X402083Y178543D01*
X401000Y178685D01*
D02*
G37*
G36*
X404000Y127921D02*
Y124500D01*
X407421D01*
X407351Y125032D01*
X406953Y125993D01*
X406319Y126819D01*
X405493Y127453D01*
X404532Y127851D01*
X404000Y127921D01*
D02*
G37*
G36*
X403000D02*
X402468Y127851D01*
X401507Y127453D01*
X400681Y126819D01*
X400047Y125993D01*
X399649Y125032D01*
X399579Y124500D01*
X403000D01*
Y127921D01*
D02*
G37*
G36*
X407421Y123500D02*
X404000D01*
Y120079D01*
X404532Y120149D01*
X405493Y120547D01*
X406319Y121181D01*
X406953Y122007D01*
X407351Y122968D01*
X407421Y123500D01*
D02*
G37*
G36*
X403000D02*
X399579D01*
X399649Y122968D01*
X400047Y122007D01*
X400681Y121181D01*
X401507Y120547D01*
X402468Y120149D01*
X403000Y120079D01*
Y123500D01*
D02*
G37*
G36*
X396000Y171185D02*
X394917Y171043D01*
X393907Y170625D01*
X393040Y169959D01*
X392375Y169093D01*
X391957Y168083D01*
X391815Y167000D01*
X391957Y165917D01*
X392375Y164907D01*
X393040Y164041D01*
X393907Y163375D01*
X394917Y162957D01*
X396000Y162815D01*
X397083Y162957D01*
X397647Y163190D01*
X411971Y148866D01*
Y127645D01*
X411507Y127453D01*
X410681Y126819D01*
X410047Y125993D01*
X409649Y125032D01*
X409513Y124000D01*
X409649Y122968D01*
X410047Y122007D01*
X410681Y121181D01*
X411507Y120547D01*
X412468Y120149D01*
X413500Y120013D01*
X414532Y120149D01*
X415493Y120547D01*
X416319Y121181D01*
X416953Y122007D01*
X417351Y122968D01*
X417487Y124000D01*
X417351Y125032D01*
X416953Y125993D01*
X416319Y126819D01*
X415493Y127453D01*
X415029Y127645D01*
Y149500D01*
X414913Y150085D01*
X414581Y150581D01*
X399810Y165353D01*
X400043Y165917D01*
X400185Y167000D01*
X400043Y168083D01*
X399625Y169093D01*
X398959Y169959D01*
X398093Y170625D01*
X397083Y171043D01*
X396000Y171185D01*
D02*
G37*
%LPD*%
D18*
X383500Y124000D02*
X389900Y117600D01*
X386300Y131200D02*
X393500Y124000D01*
X386300Y131200D02*
Y179600D01*
X386500Y179800D01*
Y190000D01*
X389700Y193200D01*
X396300D02*
X402000Y187500D01*
X407500Y192000D02*
X411900Y196400D01*
X420600D02*
X425000Y192000D01*
X391000Y174500D02*
X397547Y181047D01*
X409953D02*
X425500Y165500D01*
X412000Y187500D02*
X416500Y183000D01*
X413500Y124000D02*
Y149500D01*
X459500Y145500D02*
Y192000D01*
X455100Y196400D02*
X459500Y192000D01*
X453900Y196400D02*
X455100D01*
X555500Y119000D02*
X602500Y166000D01*
X428000Y124000D02*
X448800Y144800D01*
Y181300D02*
X450500Y183000D01*
X602500Y166000D02*
Y176000D01*
X438000Y124000D02*
X459500Y145500D01*
X445000Y187500D02*
X453900Y196400D01*
X389700Y193200D02*
X396300D01*
X450500Y183000D02*
X455000Y187500D01*
X421600Y117600D02*
X428000Y124000D01*
X389900Y117600D02*
X421600D01*
X425500Y165500D02*
X440000D01*
X397547Y181047D02*
X409953D01*
X418700Y175500D02*
X440000D01*
X411153Y183047D02*
X418700Y175500D01*
X407500Y183047D02*
X411153D01*
X407500D02*
Y192000D01*
X411900Y196400D02*
X420600D01*
X425000Y187500D02*
Y192000D01*
X396000Y167000D02*
X413500Y149500D01*
X444000Y183000D02*
X448800Y178200D01*
Y144800D02*
Y178200D01*
X416500Y183000D02*
X444000D01*
X450500D01*
X448800Y178200D02*
Y181300D01*
X593000Y134000D02*
X619000D01*
X593000Y108000D02*
Y134000D01*
Y108000D02*
X618992D01*
Y133992D01*
X624500Y142000D02*
Y168000D01*
Y142000D02*
X650500D01*
Y167992D01*
X624508D02*
X650500D01*
X342500Y97000D02*
X429000D01*
X342500Y230000D02*
X694000D01*
Y97000D02*
Y230000D01*
X429000Y97000D02*
X694000D01*
X342500D02*
Y230000D01*
D19*
X388000Y179500D02*
G03*
X404133Y179500I8066J-6302D01*
G01*
X387934Y179799D02*
X404066D01*
X573138Y186299D02*
G03*
X573138Y186299I-1969J0D01*
G01*
X581268Y130831D02*
G03*
X581268Y130831I-1969J0D01*
G01*
X636669Y117669D02*
G03*
X636669Y117669I-1969J0D01*
G01*
X457283Y130311D02*
Y156689D01*
X442717Y130311D02*
Y156689D01*
Y130311D02*
X457283D01*
X442717Y156689D02*
X457283D01*
X404283Y131811D02*
Y158189D01*
X389717Y131811D02*
Y158189D01*
Y131811D02*
X404283D01*
X389717Y158189D02*
X404283D01*
X431331Y163646D02*
Y169354D01*
X422669Y163646D02*
Y169354D01*
Y163646D02*
X431331D01*
X422669Y169354D02*
X431331D01*
X410646Y174331D02*
X416354D01*
X410646Y165669D02*
X416354D01*
Y174331D01*
X410646Y165669D02*
Y174331D01*
X377646Y167331D02*
X383354D01*
X377646Y158669D02*
X383354D01*
Y167331D01*
X377646Y158669D02*
Y167331D01*
X421646Y139831D02*
X427354D01*
X421646Y131169D02*
X427354D01*
Y139831D01*
X421646Y131169D02*
Y139831D01*
Y156831D02*
X427354D01*
X421646Y148169D02*
X427354D01*
Y156831D01*
X421646Y148169D02*
Y156831D01*
X622146Y124831D02*
X627854D01*
X622146Y116169D02*
X627854D01*
Y124831D01*
X622146Y116169D02*
Y124831D01*
X551669Y105146D02*
Y110854D01*
X560331Y105146D02*
Y110854D01*
X551669D02*
X560331D01*
X551669Y105146D02*
X560331D01*
X569569Y193646D02*
Y199354D01*
X578231Y193646D02*
Y199354D01*
X569569D02*
X578231D01*
X569569Y193646D02*
X578231D01*
X589854Y149169D02*
Y157831D01*
X584146Y149169D02*
Y157831D01*
X589854D01*
X584146Y149169D02*
X589854D01*
X546630Y167846D02*
X550370D01*
X546630Y161154D02*
X550370D01*
Y167846D01*
X546630Y161154D02*
Y167846D01*
X574646Y149169D02*
Y157831D01*
X580354Y149169D02*
Y157831D01*
X574646Y149169D02*
X580354D01*
X574646Y157831D02*
X580354D01*
X577169Y161646D02*
X585831D01*
X577169Y167354D02*
X585831D01*
Y161646D02*
Y167354D01*
X577169Y161646D02*
Y167354D01*
X564646Y149669D02*
Y158331D01*
X570354Y149669D02*
Y158331D01*
X564646Y149669D02*
X570354D01*
X564646Y158331D02*
X570354D01*
X567626Y170157D02*
Y189843D01*
X583374Y170157D02*
Y189843D01*
X567626D02*
X583374D01*
X567626Y170157D02*
X583374D01*
X563157Y134374D02*
X582843D01*
X563157Y118626D02*
X582843D01*
Y134374D01*
X563157Y118626D02*
Y134374D01*
X631157Y114126D02*
X650843D01*
X631157Y129874D02*
X650843D01*
X631157Y114126D02*
Y129874D01*
X650843Y114126D02*
Y129874D01*
X593630Y149654D02*
X597370D01*
X593630Y156346D02*
X597370D01*
X593630Y149654D02*
Y156346D01*
X597370Y149654D02*
Y156346D01*
X562846Y160130D02*
Y163870D01*
X556154Y160130D02*
Y163870D01*
Y160130D02*
X562846D01*
X556154Y163870D02*
X562846D01*
X595654Y162630D02*
Y166370D01*
X602346Y162630D02*
Y166370D01*
X595654D02*
X602346D01*
X595654Y162630D02*
X602346D01*
X603630Y146346D02*
X607370D01*
X603630Y139654D02*
X607370D01*
Y146346D01*
X603630Y139654D02*
Y146346D01*
X616130Y167346D02*
X619870D01*
X616130Y160654D02*
X619870D01*
Y167346D01*
X616130Y160654D02*
Y167346D01*
X585630Y116846D02*
X589370D01*
X585630Y110154D02*
X589370D01*
Y116846D01*
X585630Y110154D02*
Y116846D01*
X603630Y157346D02*
X607370D01*
X603630Y150654D02*
X607370D01*
Y157346D01*
X603630Y150654D02*
Y157346D01*
X622630Y130154D02*
X626370D01*
X622630Y136846D02*
X626370D01*
X622630Y130154D02*
Y136846D01*
X626370Y130154D02*
Y136846D01*
X448031Y143500D02*
X451968D01*
X450000Y141531D02*
Y145469D01*
X395031Y145000D02*
X398968D01*
X397000Y143031D02*
Y146969D01*
X432512Y163350D02*
Y169650D01*
X421488Y163350D02*
Y169650D01*
Y163350D02*
X432512D01*
X421488Y169650D02*
X432512D01*
X425031Y166500D02*
X428968D01*
X427000Y164531D02*
Y168468D01*
X410350Y175512D02*
X416650D01*
X410350Y164488D02*
X416650D01*
Y175512D01*
X410350Y164488D02*
Y175512D01*
X413500Y168031D02*
Y171968D01*
X411532Y170000D02*
X415469D01*
X377350Y168512D02*
X383650D01*
X377350Y157488D02*
X383650D01*
Y168512D01*
X377350Y157488D02*
Y168512D01*
X380500Y161031D02*
Y164968D01*
X378532Y163000D02*
X382469D01*
X421350Y141012D02*
X427650D01*
X421350Y129988D02*
X427650D01*
Y141012D01*
X421350Y129988D02*
Y141012D01*
X424500Y133531D02*
Y137468D01*
X422532Y135500D02*
X426469D01*
X421350Y158012D02*
X427650D01*
X421350Y146988D02*
X427650D01*
Y158012D01*
X421350Y146988D02*
Y158012D01*
X424500Y150531D02*
Y154468D01*
X422532Y152500D02*
X426469D01*
X621850Y126012D02*
X628150D01*
X621850Y114988D02*
X628150D01*
Y126012D01*
X621850Y114988D02*
Y126012D01*
X625000Y118531D02*
Y122468D01*
X623032Y120500D02*
X626969D01*
X550488Y104850D02*
Y111150D01*
X561512Y104850D02*
Y111150D01*
X550488D02*
X561512D01*
X550488Y104850D02*
X561512D01*
X554032Y108000D02*
X557969D01*
X556000Y106032D02*
Y109969D01*
X568388Y193350D02*
Y199650D01*
X579412Y193350D02*
Y199650D01*
X568388D02*
X579412D01*
X568388Y193350D02*
X579412D01*
X571932Y196500D02*
X575869D01*
X573900Y194532D02*
Y198469D01*
X585031Y153500D02*
X588968D01*
X587000Y151532D02*
Y155469D01*
X590150Y147988D02*
Y159012D01*
X583850Y147988D02*
Y159012D01*
X590150D01*
X583850Y147988D02*
X590150D01*
X546335Y169224D02*
X550665D01*
X546335Y159776D02*
X550665D01*
Y169224D01*
X546335Y159776D02*
Y169224D01*
X548500Y162630D02*
Y166370D01*
X546630Y164500D02*
X550370D01*
X575532Y153500D02*
X579469D01*
X577500Y151531D02*
Y155468D01*
X574350Y147988D02*
Y159012D01*
X580650Y147988D02*
Y159012D01*
X574350Y147988D02*
X580650D01*
X574350Y159012D02*
X580650D01*
X581500Y162532D02*
Y166469D01*
X579532Y164500D02*
X583469D01*
X575988Y161350D02*
X587012D01*
X575988Y167650D02*
X587012D01*
Y161350D02*
Y167650D01*
X575988Y161350D02*
Y167650D01*
X565532Y154000D02*
X569469D01*
X567500Y152031D02*
Y155968D01*
X564350Y148488D02*
Y159512D01*
X570650Y148488D02*
Y159512D01*
X564350Y148488D02*
X570650D01*
X564350Y159512D02*
X570650D01*
X573532Y180000D02*
X577469D01*
X575500Y178031D02*
Y181968D01*
X573000Y124531D02*
Y128468D01*
X571032Y126500D02*
X574969D01*
X641000Y120031D02*
Y123968D01*
X639031Y122000D02*
X642968D01*
X593335Y148276D02*
X597665D01*
X593335Y157724D02*
X597665D01*
X593335Y148276D02*
Y157724D01*
X597665Y148276D02*
Y157724D01*
X595500Y151130D02*
Y154870D01*
X593630Y153000D02*
X597370D01*
X564224Y159835D02*
Y164165D01*
X554776Y159835D02*
Y164165D01*
Y159835D02*
X564224D01*
X554776Y164165D02*
X564224D01*
X557630Y162000D02*
X561370D01*
X559500Y160130D02*
Y163870D01*
X594276Y162335D02*
Y166665D01*
X603724Y162335D02*
Y166665D01*
X594276D02*
X603724D01*
X594276Y162335D02*
X603724D01*
X597130Y164500D02*
X600870D01*
X599000Y162630D02*
Y166370D01*
X603335Y147724D02*
X607665D01*
X603335Y138276D02*
X607665D01*
Y147724D01*
X603335Y138276D02*
Y147724D01*
X605500Y141130D02*
Y144870D01*
X603630Y143000D02*
X607370D01*
X615835Y168724D02*
X620165D01*
X615835Y159276D02*
X620165D01*
Y168724D01*
X615835Y159276D02*
Y168724D01*
X618000Y162130D02*
Y165870D01*
X616130Y164000D02*
X619870D01*
X585335Y118224D02*
X589665D01*
X585335Y108776D02*
X589665D01*
Y118224D01*
X585335Y108776D02*
Y118224D01*
X587500Y111630D02*
Y115370D01*
X585630Y113500D02*
X589370D01*
X603335Y158724D02*
X607665D01*
X603335Y149276D02*
X607665D01*
Y158724D01*
X603335Y149276D02*
Y158724D01*
X605500Y152130D02*
Y155870D01*
X603630Y154000D02*
X607370D01*
X622335Y128776D02*
X626665D01*
X622335Y138224D02*
X626665D01*
X622335Y128776D02*
Y138224D01*
X626665Y128776D02*
Y138224D01*
X624500Y131630D02*
Y135370D01*
X622630Y133500D02*
X626370D01*
D20*
X470669Y129327D02*
Y157673D01*
X429331Y129327D02*
Y157673D01*
Y129327D02*
X470669D01*
X429331Y157673D02*
X470669D01*
X417669Y130827D02*
Y159173D01*
X376331Y130827D02*
Y159173D01*
Y130827D02*
X417669D01*
X376331Y159173D02*
X417669D01*
X556602Y169173D02*
Y190827D01*
X594398Y169173D02*
Y190827D01*
X556602D02*
X594398D01*
X556602Y169173D02*
X594398D01*
X562173Y145398D02*
X583827D01*
X562173Y107602D02*
X583827D01*
Y145398D01*
X562173Y107602D02*
Y145398D01*
X630173Y103102D02*
X651827D01*
X630173Y140898D02*
X651827D01*
X630173Y103102D02*
Y140898D01*
X651827Y103102D02*
Y140898D01*
D21*
X455000Y187500D02*
D03*
X383500Y124000D02*
D03*
X412000Y187500D02*
D03*
X428000Y124000D02*
D03*
X632500Y176000D02*
D03*
X548500Y175000D02*
D03*
X655000Y176000D02*
D03*
D22*
X445000Y187500D02*
D03*
X435000D02*
D03*
X425000D02*
D03*
X393500Y124000D02*
D03*
X403500D02*
D03*
X413500D02*
D03*
X402000Y187500D02*
D03*
X392000D02*
D03*
X382000D02*
D03*
X438000Y124000D02*
D03*
X448000D02*
D03*
X458000D02*
D03*
X440000Y175500D02*
D03*
X602500Y176000D02*
D03*
X612500D02*
D03*
X622500D02*
D03*
X538500Y175000D02*
D03*
X645000Y176000D02*
D03*
X606500Y111000D02*
D03*
X596500Y121000D02*
D03*
X606500Y131000D02*
D03*
X647500Y155500D02*
D03*
X637500Y145500D02*
D03*
X627500Y155500D02*
D03*
X555500Y129000D02*
D03*
Y119000D02*
D03*
D23*
X440000Y165500D02*
D03*
X555500Y139000D02*
D03*
D24*
X401000Y174500D02*
D03*
X396000Y167000D02*
D03*
X391000Y174500D02*
D03*
M02*
