M48
;Layer_Color=9474304
;FILE_FORMAT=2:5
INCH,TZ
;TYPE=PLATED
T1F00S00C0.03150
T2F00S00C0.03543
%
T01
X606500Y111000
X596500Y121000
X606500Y131000
X637500Y145500
X647500Y155500
X627500
X396000Y167000
X401000Y174500
X391000
T02
X383500Y124000
X393500
X403500
X413500
X428000
X438000
X448000
X458000
X555500Y129000
Y139000
Y119000
X632500Y176000
X645000
X655000
X622500
X612500
X602500
X548500Y175000
X538500
X455000Y187500
X445000
X435000
X425000
X412000
X402000
X392000
X382000
X440000Y175500
Y165500
M30
