G04 Layer_Color=16711935*
%FSLAX25Y25*%
%MOIN*%
G70*
G01*
G75*
%ADD18C,0.01000*%
%ADD19C,0.00394*%
%ADD20C,0.00197*%
%ADD40C,0.00600*%
D18*
X522000Y203000D02*
X524000D01*
X522000Y102000D02*
X524000D01*
X523000Y203000D02*
X525000Y197000D01*
X521000D02*
X523000Y203000D01*
Y102000D02*
X525000Y108000D01*
X521000D02*
X523000Y102000D01*
Y184090D02*
Y203000D01*
Y102000D02*
Y120910D01*
X667000Y207500D02*
Y209500D01*
X523000Y207500D02*
Y209500D01*
X661000Y206500D02*
X667000Y208500D01*
X661000Y210500D02*
X667000Y208500D01*
X523000D02*
X529000Y206500D01*
X523000Y208500D02*
X529000Y210500D01*
X626590Y208500D02*
X667000D01*
X523000D02*
X563410D01*
X375000Y100000D02*
X472500D01*
Y212500D01*
X375000D02*
X472500D01*
X375000Y100000D02*
Y212500D01*
X536000Y203000D02*
X549500D01*
X530000Y102000D02*
X667000D01*
Y203000D01*
X549500D02*
X667000D01*
X530000D02*
X536000D01*
X530000Y102000D02*
Y203000D01*
X375000Y221500D02*
X392160D01*
X455340D02*
X472500D01*
X375000D02*
X381000Y223500D01*
X375000Y221500D02*
X381000Y219500D01*
X466500Y223500D02*
X472500Y221500D01*
X466500Y219500D02*
X472500Y221500D01*
X375000Y220500D02*
Y222500D01*
X472500Y220500D02*
Y222500D01*
X367000Y100000D02*
Y124660D01*
Y187840D02*
Y212500D01*
X365000Y106000D02*
X367000Y100000D01*
X369000Y106000D01*
X365000Y206500D02*
X367000Y212500D01*
X369000Y206500D01*
X366000Y100000D02*
X368000D01*
X366000Y212500D02*
X368000D01*
X593000Y134000D02*
X619000D01*
X593000Y108000D02*
Y134000D01*
Y108000D02*
X618992D01*
Y133992D01*
X624500Y142000D02*
Y168000D01*
Y142000D02*
X650500D01*
Y167992D01*
X624508D02*
X650500D01*
X342500Y97000D02*
X429000D01*
X342500Y230000D02*
X694000D01*
Y97000D02*
Y230000D01*
X429000Y97000D02*
X694000D01*
X342500D02*
Y230000D01*
D19*
X388000Y179500D02*
G03*
X404133Y179500I8066J-6302D01*
G01*
X387934Y179799D02*
X404066D01*
X573138Y186299D02*
G03*
X573138Y186299I-1969J0D01*
G01*
X581268Y130831D02*
G03*
X581268Y130831I-1969J0D01*
G01*
X636669Y117669D02*
G03*
X636669Y117669I-1969J0D01*
G01*
X457283Y130311D02*
Y156689D01*
X442717Y130311D02*
Y156689D01*
Y130311D02*
X457283D01*
X442717Y156689D02*
X457283D01*
X404283Y131811D02*
Y158189D01*
X389717Y131811D02*
Y158189D01*
Y131811D02*
X404283D01*
X389717Y158189D02*
X404283D01*
X431331Y163646D02*
Y169354D01*
X422669Y163646D02*
Y169354D01*
Y163646D02*
X431331D01*
X422669Y169354D02*
X431331D01*
X410646Y174331D02*
X416354D01*
X410646Y165669D02*
X416354D01*
Y174331D01*
X410646Y165669D02*
Y174331D01*
X377646Y167331D02*
X383354D01*
X377646Y158669D02*
X383354D01*
Y167331D01*
X377646Y158669D02*
Y167331D01*
X421646Y139831D02*
X427354D01*
X421646Y131169D02*
X427354D01*
Y139831D01*
X421646Y131169D02*
Y139831D01*
Y156831D02*
X427354D01*
X421646Y148169D02*
X427354D01*
Y156831D01*
X421646Y148169D02*
Y156831D01*
X622146Y124831D02*
X627854D01*
X622146Y116169D02*
X627854D01*
Y124831D01*
X622146Y116169D02*
Y124831D01*
X551669Y105146D02*
Y110854D01*
X560331Y105146D02*
Y110854D01*
X551669D02*
X560331D01*
X551669Y105146D02*
X560331D01*
X569569Y193646D02*
Y199354D01*
X578231Y193646D02*
Y199354D01*
X569569D02*
X578231D01*
X569569Y193646D02*
X578231D01*
X589854Y149169D02*
Y157831D01*
X584146Y149169D02*
Y157831D01*
X589854D01*
X584146Y149169D02*
X589854D01*
X546630Y167846D02*
X550370D01*
X546630Y161154D02*
X550370D01*
Y167846D01*
X546630Y161154D02*
Y167846D01*
X574646Y149169D02*
Y157831D01*
X580354Y149169D02*
Y157831D01*
X574646Y149169D02*
X580354D01*
X574646Y157831D02*
X580354D01*
X577169Y161646D02*
X585831D01*
X577169Y167354D02*
X585831D01*
Y161646D02*
Y167354D01*
X577169Y161646D02*
Y167354D01*
X564646Y149669D02*
Y158331D01*
X570354Y149669D02*
Y158331D01*
X564646Y149669D02*
X570354D01*
X564646Y158331D02*
X570354D01*
X567626Y170157D02*
Y189843D01*
X583374Y170157D02*
Y189843D01*
X567626D02*
X583374D01*
X567626Y170157D02*
X583374D01*
X563157Y134374D02*
X582843D01*
X563157Y118626D02*
X582843D01*
Y134374D01*
X563157Y118626D02*
Y134374D01*
X631157Y114126D02*
X650843D01*
X631157Y129874D02*
X650843D01*
X631157Y114126D02*
Y129874D01*
X650843Y114126D02*
Y129874D01*
X593630Y149654D02*
X597370D01*
X593630Y156346D02*
X597370D01*
X593630Y149654D02*
Y156346D01*
X597370Y149654D02*
Y156346D01*
X562846Y160130D02*
Y163870D01*
X556154Y160130D02*
Y163870D01*
Y160130D02*
X562846D01*
X556154Y163870D02*
X562846D01*
X595654Y162630D02*
Y166370D01*
X602346Y162630D02*
Y166370D01*
X595654D02*
X602346D01*
X595654Y162630D02*
X602346D01*
X603630Y146346D02*
X607370D01*
X603630Y139654D02*
X607370D01*
Y146346D01*
X603630Y139654D02*
Y146346D01*
X616130Y167346D02*
X619870D01*
X616130Y160654D02*
X619870D01*
Y167346D01*
X616130Y160654D02*
Y167346D01*
X585630Y116846D02*
X589370D01*
X585630Y110154D02*
X589370D01*
Y116846D01*
X585630Y110154D02*
Y116846D01*
X603630Y157346D02*
X607370D01*
X603630Y150654D02*
X607370D01*
Y157346D01*
X603630Y150654D02*
Y157346D01*
X622630Y130154D02*
X626370D01*
X622630Y136846D02*
X626370D01*
X622630Y130154D02*
Y136846D01*
X626370Y130154D02*
Y136846D01*
X448031Y143500D02*
X451968D01*
X450000Y141531D02*
Y145469D01*
X395031Y145000D02*
X398968D01*
X397000Y143031D02*
Y146969D01*
X432512Y163350D02*
Y169650D01*
X421488Y163350D02*
Y169650D01*
Y163350D02*
X432512D01*
X421488Y169650D02*
X432512D01*
X425031Y166500D02*
X428968D01*
X427000Y164531D02*
Y168468D01*
X410350Y175512D02*
X416650D01*
X410350Y164488D02*
X416650D01*
Y175512D01*
X410350Y164488D02*
Y175512D01*
X413500Y168031D02*
Y171968D01*
X411532Y170000D02*
X415469D01*
X377350Y168512D02*
X383650D01*
X377350Y157488D02*
X383650D01*
Y168512D01*
X377350Y157488D02*
Y168512D01*
X380500Y161031D02*
Y164968D01*
X378532Y163000D02*
X382469D01*
X421350Y141012D02*
X427650D01*
X421350Y129988D02*
X427650D01*
Y141012D01*
X421350Y129988D02*
Y141012D01*
X424500Y133531D02*
Y137468D01*
X422532Y135500D02*
X426469D01*
X421350Y158012D02*
X427650D01*
X421350Y146988D02*
X427650D01*
Y158012D01*
X421350Y146988D02*
Y158012D01*
X424500Y150531D02*
Y154468D01*
X422532Y152500D02*
X426469D01*
X621850Y126012D02*
X628150D01*
X621850Y114988D02*
X628150D01*
Y126012D01*
X621850Y114988D02*
Y126012D01*
X625000Y118531D02*
Y122468D01*
X623032Y120500D02*
X626969D01*
X550488Y104850D02*
Y111150D01*
X561512Y104850D02*
Y111150D01*
X550488D02*
X561512D01*
X550488Y104850D02*
X561512D01*
X554032Y108000D02*
X557969D01*
X556000Y106032D02*
Y109969D01*
X568388Y193350D02*
Y199650D01*
X579412Y193350D02*
Y199650D01*
X568388D02*
X579412D01*
X568388Y193350D02*
X579412D01*
X571932Y196500D02*
X575869D01*
X573900Y194532D02*
Y198469D01*
X585031Y153500D02*
X588968D01*
X587000Y151532D02*
Y155469D01*
X590150Y147988D02*
Y159012D01*
X583850Y147988D02*
Y159012D01*
X590150D01*
X583850Y147988D02*
X590150D01*
X546335Y169224D02*
X550665D01*
X546335Y159776D02*
X550665D01*
Y169224D01*
X546335Y159776D02*
Y169224D01*
X548500Y162630D02*
Y166370D01*
X546630Y164500D02*
X550370D01*
X575532Y153500D02*
X579469D01*
X577500Y151531D02*
Y155468D01*
X574350Y147988D02*
Y159012D01*
X580650Y147988D02*
Y159012D01*
X574350Y147988D02*
X580650D01*
X574350Y159012D02*
X580650D01*
X581500Y162532D02*
Y166469D01*
X579532Y164500D02*
X583469D01*
X575988Y161350D02*
X587012D01*
X575988Y167650D02*
X587012D01*
Y161350D02*
Y167650D01*
X575988Y161350D02*
Y167650D01*
X565532Y154000D02*
X569469D01*
X567500Y152031D02*
Y155968D01*
X564350Y148488D02*
Y159512D01*
X570650Y148488D02*
Y159512D01*
X564350Y148488D02*
X570650D01*
X564350Y159512D02*
X570650D01*
X573532Y180000D02*
X577469D01*
X575500Y178031D02*
Y181968D01*
X573000Y124531D02*
Y128468D01*
X571032Y126500D02*
X574969D01*
X641000Y120031D02*
Y123968D01*
X639031Y122000D02*
X642968D01*
X593335Y148276D02*
X597665D01*
X593335Y157724D02*
X597665D01*
X593335Y148276D02*
Y157724D01*
X597665Y148276D02*
Y157724D01*
X595500Y151130D02*
Y154870D01*
X593630Y153000D02*
X597370D01*
X564224Y159835D02*
Y164165D01*
X554776Y159835D02*
Y164165D01*
Y159835D02*
X564224D01*
X554776Y164165D02*
X564224D01*
X557630Y162000D02*
X561370D01*
X559500Y160130D02*
Y163870D01*
X594276Y162335D02*
Y166665D01*
X603724Y162335D02*
Y166665D01*
X594276D02*
X603724D01*
X594276Y162335D02*
X603724D01*
X597130Y164500D02*
X600870D01*
X599000Y162630D02*
Y166370D01*
X603335Y147724D02*
X607665D01*
X603335Y138276D02*
X607665D01*
Y147724D01*
X603335Y138276D02*
Y147724D01*
X605500Y141130D02*
Y144870D01*
X603630Y143000D02*
X607370D01*
X615835Y168724D02*
X620165D01*
X615835Y159276D02*
X620165D01*
Y168724D01*
X615835Y159276D02*
Y168724D01*
X618000Y162130D02*
Y165870D01*
X616130Y164000D02*
X619870D01*
X585335Y118224D02*
X589665D01*
X585335Y108776D02*
X589665D01*
Y118224D01*
X585335Y108776D02*
Y118224D01*
X587500Y111630D02*
Y115370D01*
X585630Y113500D02*
X589370D01*
X603335Y158724D02*
X607665D01*
X603335Y149276D02*
X607665D01*
Y158724D01*
X603335Y149276D02*
Y158724D01*
X605500Y152130D02*
Y155870D01*
X603630Y154000D02*
X607370D01*
X622335Y128776D02*
X626665D01*
X622335Y138224D02*
X626665D01*
X622335Y128776D02*
Y138224D01*
X626665Y128776D02*
Y138224D01*
X624500Y131630D02*
Y135370D01*
X622630Y133500D02*
X626370D01*
D20*
X470669Y129327D02*
Y157673D01*
X429331Y129327D02*
Y157673D01*
Y129327D02*
X470669D01*
X429331Y157673D02*
X470669D01*
X417669Y130827D02*
Y159173D01*
X376331Y130827D02*
Y159173D01*
Y130827D02*
X417669D01*
X376331Y159173D02*
X417669D01*
X556602Y169173D02*
Y190827D01*
X594398Y169173D02*
Y190827D01*
X556602D02*
X594398D01*
X556602Y169173D02*
X594398D01*
X562173Y145398D02*
X583827D01*
X562173Y107602D02*
X583827D01*
Y145398D01*
X562173Y107602D02*
Y145398D01*
X630173Y103102D02*
X651827D01*
X630173Y140898D02*
X651827D01*
X630173Y103102D02*
Y140898D01*
X651827Y103102D02*
Y140898D01*
D40*
X526599Y125908D02*
Y121910D01*
X522600Y125908D01*
X521601D01*
X520601Y124909D01*
Y122909D01*
X521601Y121910D01*
X520601Y131906D02*
Y127908D01*
X523600D01*
X522600Y129907D01*
Y130907D01*
X523600Y131906D01*
X525599D01*
X526599Y130907D01*
Y128907D01*
X525599Y127908D01*
X526599Y133906D02*
X525599D01*
Y134906D01*
X526599D01*
Y133906D01*
X520601Y142903D02*
X521601Y140903D01*
X523600Y138904D01*
X525599D01*
X526599Y139904D01*
Y141903D01*
X525599Y142903D01*
X524600D01*
X523600Y141903D01*
Y138904D01*
X520601Y148901D02*
Y144902D01*
X523600D01*
X522600Y146902D01*
Y147901D01*
X523600Y148901D01*
X525599D01*
X526599Y147901D01*
Y145902D01*
X525599Y144902D01*
X526599Y153899D02*
X520601D01*
X523600Y150900D01*
Y154899D01*
X526599Y164896D02*
X524600Y162896D01*
X522600D01*
X520601Y164896D01*
X526599Y167895D02*
X522600D01*
Y168895D01*
X523600Y169894D01*
X526599D01*
X523600D01*
X522600Y170894D01*
X523600Y171894D01*
X526599D01*
Y173893D02*
X522600D01*
Y174893D01*
X523600Y175892D01*
X526599D01*
X523600D01*
X522600Y176892D01*
X523600Y177892D01*
X526599D01*
Y179891D02*
X524600Y181890D01*
X522600D01*
X520601Y179891D01*
X564410Y209899D02*
X565409Y210899D01*
X567409D01*
X568408Y209899D01*
Y208900D01*
X567409Y207900D01*
X566409D01*
X567409D01*
X568408Y206900D01*
Y205901D01*
X567409Y204901D01*
X565409D01*
X564410Y205901D01*
X574406Y210899D02*
X572407Y209899D01*
X570408Y207900D01*
Y205901D01*
X571407Y204901D01*
X573407D01*
X574406Y205901D01*
Y206900D01*
X573407Y207900D01*
X570408D01*
X576406Y204901D02*
Y205901D01*
X577406D01*
Y204901D01*
X576406D01*
X585403Y210899D02*
X581404D01*
Y207900D01*
X583403Y208900D01*
X584403D01*
X585403Y207900D01*
Y205901D01*
X584403Y204901D01*
X582404D01*
X581404Y205901D01*
X587402Y210899D02*
X591401D01*
Y209899D01*
X587402Y205901D01*
Y204901D01*
X597399Y210899D02*
X595400Y209899D01*
X593400Y207900D01*
Y205901D01*
X594400Y204901D01*
X596399D01*
X597399Y205901D01*
Y206900D01*
X596399Y207900D01*
X593400D01*
X607396Y204901D02*
X605396Y206900D01*
Y208900D01*
X607396Y210899D01*
X610395Y204901D02*
Y208900D01*
X611395D01*
X612394Y207900D01*
Y204901D01*
Y207900D01*
X613394Y208900D01*
X614394Y207900D01*
Y204901D01*
X616393D02*
Y208900D01*
X617393D01*
X618392Y207900D01*
Y204901D01*
Y207900D01*
X619392Y208900D01*
X620392Y207900D01*
Y204901D01*
X622391D02*
X624390Y206900D01*
Y208900D01*
X622391Y210899D01*
X397158Y217901D02*
X393160D01*
X397158Y221900D01*
Y222899D01*
X396159Y223899D01*
X394159D01*
X393160Y222899D01*
X402157Y217901D02*
Y223899D01*
X399158Y220900D01*
X403157D01*
X405156Y217901D02*
Y218901D01*
X406155D01*
Y217901D01*
X405156D01*
X410154Y223899D02*
X414153D01*
Y222899D01*
X410154Y218901D01*
Y217901D01*
X420151Y223899D02*
X418152Y222899D01*
X416152Y220900D01*
Y218901D01*
X417152Y217901D01*
X419151D01*
X420151Y218901D01*
Y219900D01*
X419151Y220900D01*
X416152D01*
X426149Y223899D02*
X422150D01*
Y220900D01*
X424150Y221900D01*
X425149D01*
X426149Y220900D01*
Y218901D01*
X425149Y217901D01*
X423150D01*
X422150Y218901D01*
X436146Y217901D02*
X434146Y219900D01*
Y221900D01*
X436146Y223899D01*
X439145Y217901D02*
Y221900D01*
X440144D01*
X441144Y220900D01*
Y217901D01*
Y220900D01*
X442144Y221900D01*
X443144Y220900D01*
Y217901D01*
X445143D02*
Y221900D01*
X446143D01*
X447142Y220900D01*
Y217901D01*
Y220900D01*
X448142Y221900D01*
X449142Y220900D01*
Y217901D01*
X451141D02*
X453140Y219900D01*
Y221900D01*
X451141Y223899D01*
X370599Y129658D02*
Y125660D01*
X366600Y129658D01*
X365601D01*
X364601Y128659D01*
Y126659D01*
X365601Y125660D01*
Y131658D02*
X364601Y132657D01*
Y134657D01*
X365601Y135656D01*
X366600D01*
X367600Y134657D01*
X368600Y135656D01*
X369599D01*
X370599Y134657D01*
Y132657D01*
X369599Y131658D01*
X368600D01*
X367600Y132657D01*
X366600Y131658D01*
X365601D01*
X367600Y132657D02*
Y134657D01*
X370599Y137656D02*
X369599D01*
Y138655D01*
X370599D01*
Y137656D01*
X364601Y146653D02*
Y142654D01*
X367600D01*
X366600Y144653D01*
Y145653D01*
X367600Y146653D01*
X369599D01*
X370599Y145653D01*
Y143654D01*
X369599Y142654D01*
X364601Y148652D02*
Y152651D01*
X365601D01*
X369599Y148652D01*
X370599D01*
X364601Y158649D02*
Y154650D01*
X367600D01*
X366600Y156650D01*
Y157649D01*
X367600Y158649D01*
X369599D01*
X370599Y157649D01*
Y155650D01*
X369599Y154650D01*
X370599Y168646D02*
X368600Y166646D01*
X366600D01*
X364601Y168646D01*
X370599Y171645D02*
X366600D01*
Y172644D01*
X367600Y173644D01*
X370599D01*
X367600D01*
X366600Y174644D01*
X367600Y175644D01*
X370599D01*
Y177643D02*
X366600D01*
Y178643D01*
X367600Y179642D01*
X370599D01*
X367600D01*
X366600Y180642D01*
X367600Y181642D01*
X370599D01*
Y183641D02*
X368600Y185640D01*
X366600D01*
X364601Y183641D01*
M02*
